<?xml version="1.0" standalone="no"?>
<!DOCTYPE svg PUBLIC "-//W3C//DTD SVG 20010904//EN"
 "http://www.w3.org/TR/2001/REC-SVG-20010904/DTD/svg10.dtd">
<svg version="1.0" xmlns="http://www.w3.org/2000/svg"
 width="613.000000pt" height="792.000000pt" viewBox="0 0 613.000000 792.000000"
 preserveAspectRatio="xMidYMid meet">

<g transform="translate(0.000000,792.000000) scale(0.100000,-0.100000)"
fill="#000000" stroke="none">
<path d="M840 7703 c-45 -8 -228 -102 -248 -128 -21 -26 -21 -28 -21 -2443 -1
-1329 -4 -2978 -8 -3663 l-6 -1247 34 -18 c38 -20 210 -64 250 -64 15 0 32 7
39 15 14 17 71 20 87 4 7 -7 53 -7 154 1 79 5 691 46 1359 90 668 44 1617 107
2108 140 492 33 896 60 898 60 7 0 4 1371 -2 1427 -5 35 -11 50 -19 47 -7 -3
-15 2 -18 10 -4 11 -1 16 11 17 11 0 12 2 4 6 -7 3 -24 -2 -37 -11 -13 -9 -35
-16 -47 -16 -13 0 -32 -7 -42 -15 -24 -18 -57 -20 -54 -3 4 18 -53 26 -149 19
-48 -3 -125 -2 -171 2 -73 8 -86 6 -103 -9 -15 -13 -22 -15 -31 -6 -7 7 -25
12 -40 12 -15 0 -28 5 -28 10 0 6 12 10 27 10 14 0 23 3 20 6 -4 4 -48 8 -98
10 -55 2 -95 8 -99 15 -4 6 -19 12 -33 12 -14 1 -23 4 -19 7 4 3 41 32 83 63
75 56 124 104 184 182 17 21 41 49 54 62 16 15 19 23 10 23 -11 1 -11 3 1 13
22 18 54 93 45 108 -5 8 -4 10 3 5 8 -5 12 0 12 13 0 10 -6 22 -12 25 -7 4 -3
4 9 2 13 -2 21 1 20 7 -1 6 8 13 21 15 12 2 22 8 22 13 0 6 -9 7 -20 4 -14 -5
-20 -2 -20 10 0 9 3 14 8 11 4 -2 18 2 32 10 l25 14 -30 -5 c-27 -5 -28 -4 -8
6 31 16 37 49 10 50 -12 0 -16 3 -9 6 6 2 12 12 12 20 0 9 -6 13 -15 9 -8 -3
-15 -1 -15 4 0 6 9 10 20 10 11 0 20 5 20 11 0 5 6 7 13 3 9 -6 9 -4 -1 8 -9
11 -10 18 -2 23 6 3 8 11 4 16 -7 13 25 51 37 43 5 -3 6 2 3 10 -3 9 -10 16
-16 16 -5 0 -8 8 -6 18 2 11 -3 26 -10 35 -8 10 -9 17 -3 21 6 4 8 13 5 21 -4
8 -10 12 -15 9 -5 -3 -7 -10 -4 -15 4 -5 -1 -9 -10 -9 -9 0 -13 4 -10 10 3 5
0 10 -7 11 -16 0 30 21 54 24 29 3 34 15 7 16 -13 0 -18 3 -11 6 7 3 25 16 40
30 l26 24 -26 -10 c-18 -7 -29 -6 -38 2 -10 9 -11 9 -6 0 5 -8 1 -13 -9 -13
-10 0 -13 5 -9 12 5 9 2 9 -9 -1 -14 -11 -17 -11 -17 0 0 11 -2 11 -9 1 -6
-10 -10 -10 -19 1 -10 12 -2 15 46 20 32 4 69 11 83 17 22 10 22 10 -8 6 -73
-12 -217 -18 -210 -10 5 5 23 9 40 10 107 1 117 3 117 25 0 11 5 17 10 14 6
-3 10 2 10 11 0 14 -3 15 -12 6 -17 -17 -55 -15 -62 4 -9 23 -8 26 7 17 23
-14 37 -11 37 7 0 14 -6 18 -25 14 -14 -2 -25 0 -25 6 0 5 6 10 14 10 9 0 16
12 18 32 3 28 7 33 32 35 15 1 31 5 34 8 3 3 -39 4 -93 1 -105 -5 -102 -4 33
16 85 12 123 29 52 23 -23 -2 -40 1 -40 7 0 6 -7 8 -15 4 -12 -4 -13 -2 -2 14
6 11 22 20 35 20 13 0 21 4 17 10 -3 5 -12 7 -20 3 -9 -3 -15 1 -15 9 0 7 -9
14 -20 14 -13 0 -20 -7 -20 -19 0 -10 5 -15 10 -12 6 3 10 -1 10 -9 0 -9 -7
-16 -15 -16 -8 0 -15 -8 -15 -17 0 -15 -2 -16 -10 -3 -8 12 -10 11 -10 -6 0
-11 -6 -21 -14 -21 -8 0 -11 8 -8 19 5 21 -23 26 -31 6 -2 -7 -8 -10 -12 -5
-13 11 9 28 41 30 23 2 30 9 38 35 6 21 15 32 27 32 12 0 16 5 12 15 -5 14 -8
14 -29 0 -34 -22 -43 -18 -14 6 14 11 19 18 12 14 -10 -5 -11 0 -6 22 7 25 6
27 -9 14 -11 -9 -17 -10 -17 -2 0 6 3 11 8 12 28 3 58 11 65 18 4 4 -15 6 -42
3 -34 -3 -51 -1 -51 7 0 6 9 11 21 11 11 0 17 4 14 10 -4 6 -15 8 -24 5 -10
-3 -24 1 -31 10 -10 13 -9 15 11 17 13 0 30 1 38 1 19 -1 1 13 -28 22 -15 4
-21 3 -17 -3 6 -10 -23 -26 -32 -17 -3 3 0 5 6 5 19 0 14 18 -5 23 -12 3 -10
5 7 6 47 2 57 4 57 16 0 6 -6 12 -13 12 -7 0 -11 -4 -8 -8 2 -4 -5 -7 -16 -6
-34 2 -20 29 25 45 l30 10 -27 1 c-16 1 -28 6 -28 12 0 6 -7 8 -17 5 -10 -4
-15 -4 -11 -1 3 4 -2 31 -12 61 -11 30 -16 62 -13 72 4 13 2 13 -10 -3 -8 -11
-13 -23 -11 -27 2 -3 -31 -8 -74 -10 -69 -3 -78 -1 -78 15 0 9 4 17 8 17 4 0
8 -4 8 -10 0 -5 24 -10 53 -9 28 0 46 3 39 6 -6 2 -12 9 -12 15 0 6 7 8 15 4
16 -6 45 2 45 13 0 3 -20 6 -45 6 -36 0 -45 -4 -48 -20 -3 -15 -6 -12 -12 13
-4 18 -12 35 -17 38 -5 3 -6 -5 -2 -20 7 -29 -6 -34 -29 -11 -8 8 -17 12 -21
10 -3 -3 -4 -2 -1 1 2 4 0 15 -5 25 -7 13 -18 16 -37 13 -29 -6 -76 14 -67 28
9 14 -23 38 -53 39 -23 1 -25 2 -8 7 18 6 19 10 9 30 -9 18 -13 20 -17 8 -6
-16 -47 -18 -47 -3 0 5 7 7 15 3 8 -3 18 2 23 10 5 9 19 21 32 27 20 11 30 28
14 26 -4 0 -10 5 -15 12 -4 7 -15 14 -24 15 -29 4 -30 14 -2 14 29 0 37 16 12
22 -10 2 -5 9 15 20 25 14 30 15 30 3 0 -8 -4 -15 -9 -15 -5 0 -11 -11 -13
-25 -4 -17 -1 -25 8 -25 8 0 14 -4 14 -10 0 -5 5 -10 11 -10 6 0 9 7 5 15 -3
9 3 19 14 25 17 9 20 7 21 -12 0 -15 3 -18 6 -8 3 8 11 18 17 23 7 5 5 11 -6
18 -23 13 -24 44 -2 35 9 -3 18 -6 20 -6 2 0 4 -10 4 -22 0 -12 3 -19 6 -15 4
3 4 17 0 31 -5 19 -12 24 -31 22 -13 -2 -33 5 -45 16 -11 10 -20 14 -20 8 0
-5 -8 -10 -17 -9 -11 0 -13 3 -5 6 6 2 10 9 6 14 -3 5 4 9 15 9 12 0 21 -6 21
-12 0 -10 3 -9 9 1 7 11 9 11 14 0 4 -10 6 -9 6 4 1 14 -8 17 -54 17 -30 0
-55 5 -55 10 0 6 12 10 26 10 21 0 24 3 15 14 -6 7 -8 22 -4 32 6 17 5 17 -10
5 -15 -12 -17 -11 -17 8 0 12 -4 20 -9 16 -5 -3 -8 9 -7 27 2 18 -1 41 -6 52
-7 13 -6 21 3 27 10 6 7 9 -10 9 -20 0 -22 3 -13 12 7 7 12 22 12 35 0 14 6
23 15 23 8 0 15 4 15 9 0 6 -9 9 -19 8 -11 0 -17 -5 -15 -9 3 -4 0 -8 -5 -8
-6 0 -11 7 -11 16 0 8 -4 12 -10 9 -5 -3 -10 1 -10 9 0 8 8 17 18 19 9 3 3 5
-15 6 -17 0 -34 5 -37 10 -3 4 7 7 22 5 15 -2 19 -1 9 2 -9 3 -15 10 -12 15 3
5 -1 6 -9 3 -13 -5 -14 -1 -5 25 6 17 14 29 18 27 4 -3 7 5 7 17 0 16 -6 22
-22 22 -16 0 -20 -4 -14 -15 10 -20 2 -40 -16 -40 -9 0 -13 3 -11 8 3 4 -8 8
-24 9 -33 2 -35 -2 -14 -23 19 -20 19 -44 0 -44 -9 0 -18 12 -21 30 -6 29 -9
30 -60 30 -50 0 -53 -1 -56 -27 -3 -27 -4 -27 -9 5 -5 32 -5 32 35 32 54 0 83
9 90 27 3 8 1 11 -4 8 -6 -3 -10 -1 -10 4 0 6 11 10 25 9 23 -2 37 -18 15 -18
-5 0 -10 -4 -10 -10 0 -5 8 -10 18 -10 13 0 17 9 19 42 1 40 0 42 -14 23 -11
-14 -17 -16 -20 -7 -3 6 -20 12 -39 12 -21 0 -33 4 -29 10 3 6 2 10 -4 10 -5
0 -12 -8 -14 -17 -4 -14 -5 -13 -7 5 -4 33 -4 36 -14 51 -6 9 -5 12 2 7 6 -3
13 -2 16 3 5 8 -15 21 -31 21 -3 0 -3 -15 -1 -34 2 -21 0 -32 -6 -29 -6 4 -6
-1 -2 -13 7 -18 6 -18 -12 1 -17 17 -18 22 -6 36 16 17 19 43 5 35 -5 -4 -16
-3 -25 0 -32 12 -15 21 41 23 31 0 61 5 66 10 5 5 -3 6 -19 3 -19 -3 -25 -1
-20 7 5 7 -2 11 -21 10 -25 0 -26 -1 -8 -9 18 -8 18 -9 -6 -9 -14 -1 -34 8
-44 19 -17 19 -35 19 -35 -2 0 -5 7 -8 15 -4 8 3 15 1 15 -4 0 -6 -9 -10 -20
-10 -16 0 -20 7 -20 34 0 19 6 37 13 39 7 3 4 6 -7 6 -12 1 -16 6 -13 16 9 21
-10 28 -22 8 -10 -17 -10 -17 -11 1 0 15 -3 16 -15 6 -16 -13 -55 -5 -55 13 0
8 3 8 12 -1 7 -7 19 -12 28 -12 13 0 13 1 0 10 -13 8 -13 10 2 10 11 0 15 5
12 15 -4 9 0 15 10 15 9 0 16 -8 17 -17 0 -11 3 -13 6 -5 2 6 11 12 19 12 9 0
12 5 9 10 -4 6 -11 8 -16 5 -5 -4 -9 1 -9 9 0 14 -12 20 -32 17 -5 0 -8 5 -8
12 0 9 -13 14 -36 15 -20 1 -43 7 -50 13 -10 8 -14 8 -14 1 0 -6 -7 -9 -16 -5
-11 4 -12 8 -4 13 15 9 6 66 -10 62 -8 -2 -11 4 -7 18 4 15 1 21 -11 19 -33
-3 -42 1 -42 20 0 11 -5 23 -10 26 -8 5 -7 12 2 23 10 14 10 15 -2 5 -7 -7
-15 -23 -17 -35 -2 -18 -1 -20 7 -8 7 11 9 5 8 -23 -1 -20 -3 -35 -6 -32 -3 2
-16 -7 -29 -21 -25 -27 -29 -25 -13 7 8 15 7 19 -4 19 -8 0 -17 -8 -19 -17 -4
-17 -5 -17 -6 0 0 9 -7 17 -13 17 -7 0 -5 5 5 11 9 5 17 19 17 29 0 16 -10 21
-52 27 -29 4 -59 6 -65 5 -7 -2 -10 3 -7 11 3 8 -2 17 -12 21 -12 4 -15 2 -10
-9 3 -8 1 -15 -3 -15 -5 0 -11 6 -14 14 -8 19 -55 26 -68 10 -14 -17 -29 -9
-29 17 0 11 -7 19 -16 19 -10 0 -12 -5 -7 -12 11 -18 13 -38 3 -38 -4 0 -11 8
-15 18 -6 15 -8 15 -18 2 -7 -8 -24 -15 -38 -16 -23 0 -26 4 -25 28 2 22 -1
25 -11 16 -8 -6 -12 -17 -9 -25 4 -9 -4 -13 -24 -13 -17 0 -30 -5 -30 -12 0
-8 -5 -6 -10 4 -12 19 3 68 20 68 6 0 9 -4 6 -9 -11 -17 19 -18 35 -2 11 10
14 23 9 36 -6 17 -8 16 -14 -9 -5 -21 -10 -25 -19 -17 -7 5 -23 8 -35 4 l-22
-5 -2 -704 c-2 -387 0 -704 4 -704 4 0 3 -11 -2 -25 -10 -27 -2 -39 54 -78 34
-23 34 -60 1 -75 -52 -24 -89 12 -94 92 -1 16 -8 18 -61 14 -48 -3 -67 -10
-97 -35 -39 -31 -102 -106 -150 -178 -33 -49 -55 -144 -43 -185 5 -17 6 -30 2
-30 -3 0 4 -9 16 -20 12 -12 22 -25 22 -30 0 -11 54 -36 95 -45 17 -3 75 4
130 15 55 11 106 20 113 20 10 0 12 -24 8 -102 -2 -57 -5 -122 -5 -146 -1 -36
-4 -42 -18 -38 -10 3 -54 8 -98 10 -157 10 -233 19 -310 37 -27 6 -57 11 -65
11 -8 1 -20 5 -27 10 -6 5 -27 11 -45 13 -18 3 -38 11 -44 20 -6 8 -20 15 -31
15 -29 0 -72 24 -123 70 -25 22 -53 40 -62 40 -21 0 -24 16 -5 23 6 3 2 6 -11
6 -14 1 -26 10 -32 26 -6 16 -17 25 -31 25 -12 0 -23 8 -26 19 -3 11 -18 24
-34 30 -16 6 -36 16 -43 23 -8 7 -28 24 -46 38 -18 14 -37 30 -44 35 -6 6 -27
22 -46 36 -43 33 -136 119 -128 119 4 0 -18 25 -48 55 -50 50 -56 54 -79 43
-14 -6 -25 -16 -26 -22 0 -6 -4 -1 -9 11 -10 24 -6 168 5 203 4 11 11 17 17
14 8 -5 9 -1 4 11 -4 10 -1 24 8 34 8 9 15 19 16 23 2 18 37 73 57 93 13 12
26 36 29 54 4 17 13 31 20 31 8 0 14 5 14 10 0 6 -5 10 -11 10 -5 0 3 12 18
26 15 14 28 29 29 32 0 4 6 20 12 35 7 16 12 33 12 38 0 5 5 9 10 9 6 0 10 11
10 25 0 14 5 25 10 25 6 0 10 6 10 14 0 8 16 63 36 122 19 59 33 116 31 126
-4 12 1 18 11 19 11 0 13 2 4 6 -10 4 -10 8 -1 19 9 11 8 14 -6 14 -16 0 -16
2 -3 23 8 12 20 36 26 54 32 95 168 240 289 310 105 60 159 76 256 71 71 -3
92 -8 156 -41 67 -34 76 -36 112 -27 38 11 39 12 39 56 0 44 -22 102 -44 116
-6 4 -7 8 -2 8 22 0 -69 74 -122 98 -52 24 -67 27 -167 26 -161 -1 -246 -33
-364 -136 -40 -36 -57 -45 -59 -34 -2 8 5 27 14 43 l18 28 -22 -19 c-12 -11
-22 -15 -22 -9 0 5 12 16 28 24 15 8 32 19 38 24 6 6 43 28 82 49 77 42 80 47
87 143 2 26 5 54 7 62 2 10 -8 18 -27 23 l-30 7 33 -3 c32 -3 42 7 21 19 -6 4
-8 13 -5 21 3 7 1 16 -5 19 -5 4 -6 13 0 22 9 18 3 55 -12 64 -5 4 -12 31 -16
60 -5 48 -9 54 -28 51 -12 -2 -24 2 -28 8 -4 6 -3 9 2 8 4 -2 9 1 10 6 1 5 7
13 15 17 10 7 9 9 -3 9 -10 0 -20 11 -24 27 -5 21 -8 24 -16 12 -5 -7 -9 -10
-9 -5 0 5 8 18 18 29 9 11 12 17 5 13 -7 -4 -18 7 -29 29 -9 19 -24 35 -33 35
-14 0 -14 2 -1 10 13 8 13 11 1 22 -8 7 -11 8 -8 2 7 -12 -21 -29 -31 -19 -3
3 -1 5 5 5 6 0 13 12 16 26 3 16 0 24 -7 21 -14 -6 -37 18 -28 29 4 4 2 4 -4
1 -7 -4 -18 1 -25 10 -8 9 -12 17 -9 17 2 1 -3 12 -13 26 -9 13 -17 19 -17 12
0 -23 -20 -2 -21 21 0 12 -3 16 -6 9 -3 -9 -17 1 -40 28 -26 30 -38 38 -44 29
-6 -11 -9 -10 -14 3 -4 10 -13 14 -21 11 -9 -3 -14 0 -12 8 2 8 -3 13 -9 11
-7 -1 -13 2 -13 8 0 14 -27 12 -33 -2 -3 -7 -6 -3 -6 10 -1 20 -9 26 -28 20
-5 -2 -6 -7 -5 -13 2 -5 0 -6 -5 -2 -4 5 -8 13 -8 18 0 5 -4 9 -10 10 -5 1
-19 6 -30 12 -11 6 -26 10 -32 9 -7 -2 -13 2 -13 9 0 6 -7 9 -15 5 -8 -3 -15
0 -15 6 0 7 -5 6 -15 -2 -12 -10 -18 -10 -30 0 -8 6 -18 9 -24 6 -5 -3 -20 -2
-33 3 -12 4 -40 11 -60 15 -33 6 -37 5 -31 -10 5 -15 3 -14 -23 2 -29 18 -29
18 -14 -1 13 -17 13 -18 0 -10 -19 12 -120 14 -120 3 0 -5 -11 -6 -25 -4 -18
3 -25 0 -25 -11 0 -13 -3 -13 -15 -3 -8 7 -15 8 -15 3 0 -5 -6 -10 -12 -11
-29 -3 -54 -9 -70 -15 -10 -4 -25 -9 -34 -12 -9 -3 -12 -10 -8 -17 6 -10 3 -9
-9 0 -14 12 -19 11 -38 -7 -13 -12 -31 -21 -41 -21 -12 0 -16 -4 -12 -11 4 -8
0 -9 -15 -4 -15 4 -21 2 -21 -9 0 -10 -6 -13 -15 -10 -10 4 -15 0 -15 -11 0
-12 -6 -16 -20 -12 -12 3 -20 0 -20 -8 0 -7 -9 -15 -21 -18 -11 -3 -23 -15
-26 -26 -3 -11 -9 -19 -13 -16 -12 7 -57 -47 -86 -105 -24 -47 -28 -67 -28
-147 -1 -51 -3 -93 -6 -93 -3 0 -5 -33 -6 -73 -1 -39 -3 -138 -5 -220 -3 -113
-1 -147 9 -147 6 0 12 -5 12 -11 0 -5 -4 -8 -9 -5 -5 3 -11 -1 -15 -9 -3 -8
-1 -15 5 -15 6 0 7 -6 0 -17 -5 -10 -5 -26 -1 -39 5 -12 6 -24 4 -27 -10 -10
-11 -106 -1 -104 5 1 12 -4 14 -11 3 -7 -1 -10 -9 -7 -19 7 -17 -53 1 -65 10
-5 10 -9 2 -15 -7 -4 -11 -14 -10 -23 1 -10 -1 -25 -6 -35 -5 -11 -1 -42 10
-77 16 -54 17 -116 10 -1006 -10 -1173 -11 -1290 -18 -1301 -3 -4 -6 -89 -6
-188 -1 -99 -3 -204 -4 -233 -6 -94 -17 -68 -18 44 0 60 -3 150 -5 199 -8 154
-16 4976 -9 5053 5 52 11 72 21 72 8 0 15 -3 15 -7 1 -5 3 -332 5 -728 3 -854
2 -775 12 -775 5 0 23 22 41 50 18 27 58 76 89 108 217 221 565 300 892 201
86 -26 212 -89 278 -139 28 -22 52 -37 52 -33 0 3 9 -2 20 -12 17 -15 20 -16
15 -3 -5 13 1 16 39 15 25 -1 46 1 46 5 0 7 41 23 53 20 4 -1 7 2 7 8 0 5 8
10 19 10 10 0 24 6 30 14 7 8 27 18 44 22 18 3 38 11 46 18 8 6 16 10 17 9 2
-1 19 4 38 12 20 8 42 15 51 15 8 0 15 4 15 9 0 8 31 20 53 20 4 0 21 8 38 17
18 9 42 14 56 11 13 -2 21 -2 18 2 -5 5 85 24 175 36 14 2 47 10 73 19 38 11
84 14 200 10 189 -5 252 -10 266 -18 6 -4 16 -4 21 -1 15 9 130 -11 295 -52
77 -19 149 -36 160 -37 11 -1 40 -8 64 -15 23 -7 49 -10 56 -7 8 3 15 0 18 -7
2 -7 18 -11 40 -9 20 2 37 -1 37 -6 0 -18 46 -21 100 -6 78 21 242 29 327 15
338 -53 636 -312 738 -641 9 -30 18 -59 20 -65 2 -5 4 374 4 842 l1 853 -33
13 c-21 9 -115 18 -267 25 -129 6 -278 18 -330 26 -52 8 -158 17 -235 20 -220
10 -330 16 -465 28 -69 5 -176 12 -237 13 -62 2 -152 8 -200 14 -49 6 -189 13
-313 16 -124 3 -242 7 -264 9 -21 3 -95 7 -165 11 -69 3 -169 10 -221 15 -52
5 -151 11 -220 14 -258 12 -466 20 -490 19 -14 0 -92 6 -175 13 -185 15 -349
24 -527 28 -75 2 -140 6 -145 8 -4 2 -55 6 -112 7 -57 2 -122 9 -144 17 -40
14 -51 15 -97 7z m-126 -352 c-9 -11 -21 13 -16 32 6 22 6 22 12 -3 4 -14 6
-27 4 -29z m620 7 c7 -31 8 -32 21 -14 8 11 15 26 15 34 0 7 8 12 18 10 14 -3
17 -14 17 -61 0 -61 -16 -80 -26 -31 l-6 29 -8 -34 c-6 -27 -10 -30 -17 -17
-11 20 -28 21 -28 0 0 -8 -4 -12 -10 -9 -11 7 -14 118 -4 128 11 11 21 -1 28
-35z m154 20 c11 -15 35 -119 28 -126 -3 -2 -16 9 -30 24 -26 29 -26 29 -32 7
-3 -13 -10 -23 -15 -23 -14 0 -10 42 6 74 8 15 15 35 15 42 0 17 14 18 28 2z
m84 -65 c3 -48 1 -63 -9 -63 -9 0 -13 19 -13 72 0 87 16 80 22 -9z m138 48
c27 -52 0 -111 -52 -111 -25 0 -28 3 -28 34 0 18 -3 48 -6 65 -6 31 -6 31 34
31 31 0 44 -5 52 -19z m97 2 c3 -7 -3 -9 -16 -6 -26 7 -28 -13 -2 -26 20 -11
34 -51 25 -74 -3 -8 -17 -14 -32 -13 -25 1 -27 4 -33 61 -4 33 -5 64 -2 68 7
12 56 4 60 -10z m41 -127 c-4 -6 -7 26 -6 70 l1 79 7 -70 c3 -38 3 -74 -2 -79z
m37 81 c0 -32 4 -42 18 -45 15 -3 18 2 15 35 -2 21 -7 44 -12 51 -5 8 0 12 13
12 12 0 22 -3 22 -7 13 -90 7 -123 -23 -123 -46 0 -73 59 -52 115 10 25 19 7
19 -38z m284 33 c49 -26 46 -113 -3 -126 -32 -8 -45 1 -62 42 -11 27 -12 39
-3 57 20 37 37 44 68 27z m96 -9 c3 -5 1 -12 -5 -16 -5 -3 -10 -28 -10 -56 0
-27 -4 -49 -10 -49 -6 0 -10 28 -10 65 0 50 3 65 14 65 8 0 17 -4 21 -9z m255
-76 c0 -37 -4 -65 -10 -65 -6 0 -10 28 -10 65 0 37 4 65 10 65 6 0 10 -28 10
-65z m110 45 c6 -12 10 -39 8 -62 -2 -31 -8 -43 -25 -49 -33 -12 -73 23 -73
66 0 55 67 88 90 45z m60 -45 c0 -42 3 -55 15 -55 8 0 15 -4 15 -10 0 -5 -11
-10 -25 -10 -24 0 -25 2 -25 65 0 37 4 65 10 65 6 0 10 -25 10 -55z m110 29
c13 -34 13 -34 -10 -34 -11 0 -20 -7 -20 -15 0 -8 9 -15 20 -15 11 0 20 -6 20
-14 0 -21 -21 -31 -31 -15 -8 12 -11 12 -19 -1 -10 -16 -12 -9 -12 35 0 74 2
85 22 85 13 0 24 -10 30 -26z m103 -42 c10 -63 5 -73 -22 -41 -20 24 -20 24
-21 2 0 -12 -4 -25 -10 -28 -11 -7 -12 3 -15 78 -1 48 -1 48 29 45 29 -3 31
-6 39 -56z m91 8 c18 -44 21 -80 7 -80 -5 0 -11 9 -14 20 -3 11 -10 20 -15 20
-6 0 -14 -9 -17 -20 -8 -25 -39 -27 -31 -2 2 9 10 36 17 60 15 53 32 54 53 2z
m110 34 c12 -5 16 -20 16 -58 0 -29 -3 -56 -7 -60 -4 -3 -17 6 -30 21 -24 28
-24 28 -21 4 6 -47 -19 -32 -26 15 -10 79 -9 84 23 84 16 0 36 -3 45 -6z m76
-54 c7 -64 30 -65 30 -1 0 28 5 51 10 51 6 0 10 -27 10 -60 0 -60 0 -60 -30
-60 -36 0 -50 23 -50 80 0 56 23 48 30 -10z m175 -21 c19 -55 13 -75 -11 -41
-18 25 -42 29 -50 7 -5 -13 -34 -22 -34 -11 0 2 11 29 25 61 30 67 44 64 70
-16z m55 61 c9 -5 14 -26 15 -57 0 -55 -18 -75 -23 -24 -2 19 -10 44 -18 56
-19 30 -5 45 26 25z m60 -20 c0 -11 5 -20 10 -20 6 0 10 6 10 14 0 16 18 31
26 23 3 -3 -2 -22 -10 -42 -9 -21 -16 -46 -16 -56 0 -11 -4 -19 -10 -19 -5 0
-10 10 -10 23 0 12 -7 33 -16 45 -16 23 -13 52 6 52 5 0 10 -9 10 -20z m-1860
0 c0 -5 -5 -10 -11 -10 -5 0 -7 5 -4 10 3 6 8 10 11 10 2 0 4 -4 4 -10z m2147
-20 c3 -11 9 -20 14 -20 4 0 13 9 19 20 6 11 15 20 19 20 11 0 20 -111 11
-122 -3 -5 -23 1 -43 11 -36 19 -37 19 -37 -1 0 -10 -4 -16 -10 -13 -5 3 -10
33 -10 66 0 47 3 59 16 59 9 0 18 -9 21 -20z m135 -9 c-2 -13 -10 -31 -18 -38
-22 -22 -17 -36 11 -29 18 5 25 2 25 -8 0 -21 -17 -29 -46 -22 -22 6 -24 12
-24 60 0 59 5 68 35 64 15 -2 19 -9 17 -27z m116 7 c7 -7 12 -30 12 -53 0 -65
-34 -84 -77 -43 -42 39 -22 108 31 108 12 0 27 -5 34 -12z m66 -23 c-9 -13
-12 -29 -8 -36 4 -8 14 1 26 25 20 39 45 44 40 8 -2 -12 2 -31 8 -42 14 -26 6
-37 -14 -21 -12 10 -16 8 -21 -9 -8 -26 -26 -21 -42 10 l-11 23 -5 -29 c-2
-16 -5 -1 -6 33 -1 51 2 62 17 66 28 6 33 -2 16 -28z m154 5 c3 -7 0 -10 -7
-6 -16 10 -14 -11 5 -39 9 -14 13 -33 10 -42 -6 -14 -9 -12 -22 13 -9 16 -22
33 -30 37 -19 11 -18 34 4 46 20 12 34 9 40 -9z m107 0 c3 -5 -1 -10 -9 -10
-22 0 -20 -9 6 -37 28 -30 15 -57 -28 -61 -28 -2 -28 -2 -10 13 19 14 19 15 1
35 -22 25 -32 25 -38 3 -3 -10 -5 -4 -6 13 0 16 4 35 11 42 15 15 64 16 73 2z
m91 -1 c3 -6 1 -16 -5 -22 -6 -6 -11 -28 -11 -49 0 -27 -4 -38 -15 -38 -11 0
-15 11 -15 36 0 23 -6 41 -17 49 -9 7 -13 17 -9 23 9 15 63 16 72 1z m94 -15
c0 -10 -6 -14 -14 -11 -8 3 -20 -1 -27 -9 -6 -8 -15 -12 -18 -9 -6 7 38 44 52
45 4 0 7 -7 7 -16z m76 -11 c12 -17 13 -17 26 0 10 14 24 18 52 15 l38 -3 1
-58 c2 -53 0 -58 -22 -64 -17 -4 -28 0 -38 12 -7 11 -13 13 -13 7 0 -15 -36
-16 -46 -1 -4 8 -9 8 -17 0 -25 -25 -37 -11 -37 42 0 30 3 57 7 60 12 12 36 7
49 -10z m199 -13 c3 -11 10 -20 15 -20 5 0 12 9 15 20 3 11 13 20 21 20 11 0
14 -15 14 -60 0 -66 -13 -77 -50 -40 -24 24 -30 25 -30 6 0 -15 -24 -28 -34
-19 -9 10 -7 59 4 87 11 31 36 34 45 6z m145 -3 c-41 -20 -39 -98 2 -82 18 7
38 47 38 75 0 11 7 20 15 20 9 0 15 -6 14 -12 -5 -40 24 -56 34 -18 3 11 10
20 15 20 13 0 27 -84 17 -99 -11 -18 -35 -12 -35 9 0 11 -6 20 -14 20 -7 0
-16 -9 -19 -20 -7 -27 -27 -26 -27 2 l0 21 -23 -21 c-28 -26 -50 -28 -71 -6
-37 36 -6 104 47 104 l32 0 -25 -13z m190 -58 c0 -37 -4 -49 -15 -49 -11 0
-15 12 -15 48 0 27 3 52 6 55 15 14 24 -7 24 -54z m-2950 -49 c68 -13 134 -44
178 -84 47 -43 55 -45 41 -10 -19 52 36 100 104 91 54 -7 75 -29 58 -59 -18
-36 -73 -68 -113 -68 -36 0 -37 0 -27 -32 10 -36 4 -85 -14 -109 -25 -33 -78
-51 -163 -53 -61 -2 -84 1 -84 10 0 6 -22 26 -49 43 -27 18 -52 39 -56 48 -8
23 25 53 66 62 31 6 34 10 37 49 4 51 16 54 32 8 10 -30 15 -34 56 -39 52 -5
84 -30 84 -64 0 -28 -33 -32 -52 -5 -16 22 -43 33 -63 26 -10 -4 -15 -20 -15
-50 l0 -44 55 0 c31 0 69 7 85 15 26 13 30 21 30 57 0 59 -35 99 -125 144 -91
45 -202 59 -234 30 -25 -23 -39 -2 -16 24 27 29 72 32 185 10z m1442 -55 c87
-18 128 -38 187 -91 l47 -43 -4 29 c-6 44 43 90 95 90 50 0 76 -19 71 -50 -3
-27 -58 -68 -100 -77 -26 -5 -27 -7 -13 -26 9 -12 15 -44 15 -74 0 -46 -3 -53
-20 -53 -18 0 -20 7 -20 69 0 39 -4 72 -9 76 -6 3 -7 -17 -4 -50 5 -52 4 -56
-26 -84 -33 -31 -52 -36 -153 -45 -43 -3 -58 -1 -58 8 0 7 -22 27 -49 45 -80
51 -78 88 4 111 41 11 44 15 47 49 4 43 20 44 32 3 7 -25 15 -31 48 -35 52 -7
70 -23 66 -61 -4 -38 -35 -49 -40 -14 -2 18 -10 24 -35 26 -32 3 -33 2 -33
-37 l0 -41 48 0 c94 0 124 43 82 117 -38 68 -135 120 -245 130 -48 4 -64 2
-77 -11 -22 -21 -28 -20 -28 4 0 14 11 26 33 35 41 18 56 18 139 0z m-2883
-117 c-1 -46 -3 -75 -6 -64 -4 16 -9 14 -39 -15 l-34 -33 0 76 c0 82 10 100
39 74 25 -23 31 -20 31 14 0 17 2 30 5 30 3 0 4 -37 4 -82z m2030 40 c17 -23
31 -54 31 -70 0 -15 4 -28 9 -28 14 0 21 41 11 60 -13 25 -3 30 62 30 66 0 71
-8 34 -55 -20 -25 -22 -31 -9 -40 12 -9 11 -15 -7 -37 -39 -51 -90 -44 -90 11
l-1 26 -15 -28 c-19 -36 -41 -32 -72 13 l-24 35 6 -37 c6 -34 5 -38 -14 -38
-11 0 -20 7 -20 15 0 19 -10 19 -24 -1 -7 -8 -30 -18 -51 -21 -31 -4 -46 0
-67 17 -16 12 -28 29 -28 38 0 14 10 17 57 15 l58 -1 -52 7 c-58 7 -58 7 -67
38 -6 19 -2 25 20 33 40 16 129 9 129 -10 0 -10 -17 -15 -65 -18 -85 -5 -90
-12 -9 -12 68 0 88 -10 91 -44 0 -12 4 2 7 29 8 65 35 69 68 10 19 -33 23 -36
23 -17 0 12 -7 39 -15 59 -14 34 -19 63 -11 63 2 0 18 -19 35 -42z m241 -13
c0 -4 -7 -20 -16 -38 l-16 -32 34 33 c53 50 78 40 78 -32 0 -40 -37 -84 -78
-92 -26 -5 -30 -12 -43 -67 -15 -65 -31 -81 -48 -48 -8 15 -8 32 0 63 7 24 13
69 14 101 2 48 7 63 31 88 26 27 44 37 44 24z m-536 -21 c10 -26 7 -134 -4
-134 -17 0 -32 52 -26 95 3 22 5 43 5 48 1 13 19 7 25 -9z m1700 -33 c9 -10
23 -38 30 -62 l14 -44 1 48 1 47 56 0 57 0 -6 -35 c-3 -19 -4 -35 -2 -35 2 0
12 16 24 35 25 42 44 46 35 8 -7 -27 -6 -28 13 -10 29 25 61 22 75 -8 18 -39
-12 -92 -62 -113 -34 -14 -42 -24 -50 -57 -13 -52 -24 -70 -41 -70 -20 0 -22
41 -6 102 17 64 9 82 -21 48 -27 -30 -57 -32 -72 -4 -11 19 -13 19 -29 5 -25
-22 -36 -20 -60 12 -21 27 -21 27 -18 3 3 -30 -22 -40 -30 -12 -5 19 -7 19
-26 6 -26 -18 -77 -19 -99 -2 -10 7 -19 35 -23 69 l-7 56 55 7 c30 4 63 5 73
3 23 -4 32 -38 10 -38 -10 0 -13 -6 -10 -15 9 -22 19 -18 32 10 15 33 28 32
52 -7 24 -39 26 -22 5 29 -18 43 -18 43 -2 43 8 0 21 -8 31 -19z m-3437 -83
c-3 -8 -6 -5 -6 6 -1 11 2 17 5 13 3 -3 4 -12 1 -19z m-34 -33 l27 14 0 -55
c0 -31 -4 -53 -9 -49 -16 9 -41 -25 -41 -56 0 -42 34 -40 48 4 9 30 10 29 11
-25 l1 -57 -32 14 c-38 15 -54 55 -44 108 5 26 13 37 31 41 34 9 32 28 -2 24
-26 -3 -28 0 -30 32 -1 26 0 29 5 13 7 -21 9 -22 35 -8z m1454 -477 c-6 -4
-17 -2 -25 4 -10 9 -10 13 -1 19 7 4 18 2 24 -4 9 -9 10 -14 2 -19z m204 -275
c13 -16 12 -17 -3 -4 -10 7 -18 15 -18 17 0 8 8 3 21 -13z m126 -255 c-3 -8
-6 -5 -6 6 -1 11 2 17 5 13 3 -3 4 -12 1 -19z m4 -181 c-10 -9 -11 -8 -5 6 3
10 9 15 12 12 3 -3 0 -11 -7 -18z m-8 -82 c-3 -9 -8 -14 -10 -11 -3 3 -2 9 2
15 9 16 15 13 8 -4z m-80 -72 c-7 -2 -21 -2 -30 0 -10 3 -4 5 12 5 17 0 24 -2
18 -5z m-1443 -137 c0 -2 -9 -6 -20 -9 -11 -3 -18 -1 -14 4 5 9 34 13 34 5z
m2617 -52 c-3 -3 -12 -4 -19 -1 -8 3 -5 6 6 6 11 1 17 -2 13 -5z m-227 -43 c0
-17 -4 -33 -10 -36 -6 -4 -10 8 -10 29 0 20 5 36 10 36 6 0 10 -13 10 -29z
m271 3 c12 -15 11 -16 -9 -10 -17 6 -22 3 -23 -11 0 -11 -3 -13 -6 -5 -3 7 1
19 7 27 15 18 15 19 31 -1z m-189 -39 c4 -51 -6 -60 -16 -14 -8 43 -8 59 3 59
5 0 11 -20 13 -45z m54 29 c-4 -12 -2 -15 9 -10 8 3 22 9 30 12 8 3 15 2 15
-3 0 -5 -6 -10 -12 -11 -7 0 -23 -4 -35 -7 -17 -5 -23 -3 -23 7 0 14 9 28 18
28 2 0 1 -7 -2 -16z m189 -5 c-10 -15 -25 -10 -19 6 4 8 10 12 15 9 5 -3 7
-10 4 -15z m45 11 c8 -5 11 -12 7 -17 -5 -4 -12 -1 -17 6 -6 11 -9 8 -13 -10
-4 -23 -4 -22 -6 4 -1 29 5 32 29 17z m-410 -25 c0 -8 -4 -15 -10 -15 -5 0
-10 7 -10 15 0 8 5 15 10 15 6 0 10 -7 10 -15z m584 -42 c9 4 11 -2 8 -19 -4
-25 -22 -34 -22 -11 0 6 -2 21 -4 32 -2 11 -1 14 1 7 3 -8 10 -11 17 -9z
m-517 -5 c-3 -8 -6 -5 -6 6 -1 11 2 17 5 13 3 -3 4 -12 1 -19z m237 16 c18 -7
22 -44 5 -44 -5 0 -8 4 -5 8 2 4 0 14 -5 22 -8 13 -12 12 -24 -4 -8 -11 -15
-15 -15 -10 0 9 20 34 26 34 1 0 9 -3 18 -6z m52 -16 c-10 -6 -20 -7 -24 -3
-9 8 20 25 31 18 5 -3 2 -10 -7 -15z m190 -21 c0 -29 -4 -44 -13 -44 -8 0 -11
11 -9 31 2 17 4 37 5 44 0 6 4 12 9 12 4 0 7 -19 8 -43z m-496 28 c0 -2 -7 -8
-15 -15 -12 -10 -15 -10 -15 2 0 8 7 15 15 15 8 0 15 -1 15 -2z m130 -5 c0 -5
-4 -10 -10 -10 -5 0 -10 5 -10 10 0 6 5 10 10 10 6 0 10 -4 10 -10z m32 -12
c-7 -7 -12 -8 -12 -2 0 6 3 14 7 17 3 4 9 5 12 2 2 -3 -1 -11 -7 -17z m208 18
c0 -2 -7 -9 -15 -16 -12 -10 -15 -10 -15 4 0 9 7 16 15 16 8 0 15 -2 15 -4z
m49 -61 c0 -5 -6 -1 -14 9 -8 11 -15 24 -15 30 0 5 7 1 15 -10 8 -10 14 -23
14 -29z m36 25 c3 -5 1 -10 -4 -10 -6 0 -11 5 -11 10 0 6 2 10 4 10 3 0 8 -4
11 -10z m-75 -4 c0 -3 -4 -8 -10 -11 -5 -3 -10 -1 -10 4 0 6 5 11 10 11 6 0
10 -2 10 -4z m-250 -16 c0 -5 -2 -10 -4 -10 -3 0 -8 5 -11 10 -3 6 -1 10 4 10
6 0 11 -4 11 -10z m215 0 c3 -5 1 -10 -4 -10 -6 0 -11 5 -11 10 0 6 2 10 4 10
3 0 8 -4 11 -10z m-325 -64 c0 -8 -5 -18 -11 -22 -8 -4 -9 0 -4 15 4 14 1 23
-9 27 -9 3 -13 10 -10 15 7 12 34 -15 34 -35z m-57 27 c-18 -7 -16 -33 2 -33
8 0 15 -4 15 -10 0 -11 -11 -13 -34 -4 -9 3 -16 12 -16 18 0 15 21 36 35 35 5
0 4 -3 -2 -6z m107 -3 c0 -5 -4 -10 -10 -10 -5 0 -10 5 -10 10 0 6 5 10 10 10
6 0 10 -4 10 -10z m120 2 c0 -5 -7 -9 -15 -9 -8 0 -15 4 -15 9 0 4 7 8 15 8 8
0 15 -4 15 -8z m395 -2 c3 -5 1 -10 -4 -10 -6 0 -11 5 -11 10 0 6 2 10 4 10 3
0 8 -4 11 -10z m-165 -10 c0 -5 -4 -10 -10 -10 -5 0 -10 5 -10 10 0 6 5 10 10
10 6 0 10 -4 10 -10z m140 -1 c0 -5 -5 -7 -12 -3 -7 5 -9 2 -5 -9 4 -11 2 -14
-8 -11 -8 3 -11 12 -8 20 6 16 33 19 33 3z m82 -19 c3 -16 1 -30 -4 -30 -4 0
-8 5 -8 11 0 5 -4 7 -10 4 -5 -3 -10 -17 -10 -31 0 -14 -4 -23 -8 -20 -14 8
-1 66 14 66 20 0 17 18 -3 23 -14 4 -14 5 3 6 17 1 23 -6 26 -29z m-409 -10
c-7 -28 -13 -25 -13 6 0 14 4 23 9 20 5 -3 7 -15 4 -26z m34 8 c-3 -8 -6 -5
-6 6 -1 11 2 17 5 13 3 -3 4 -12 1 -19z m203 18 c0 -3 -4 -8 -10 -11 -5 -3
-10 -1 -10 4 0 6 5 11 10 11 6 0 10 -2 10 -4z m40 -17 c0 -5 -4 -9 -10 -9 -5
0 -10 7 -10 16 0 8 5 12 10 9 6 -3 10 -10 10 -16z m-160 -16 c0 -22 -2 -25
-10 -13 -13 20 -13 40 0 40 6 0 10 -12 10 -27z m47 7 c3 -11 10 -17 17 -13 8
4 8 2 -1 -7 -14 -15 -36 -3 -29 15 3 8 -3 16 -12 18 -15 4 -15 5 1 6 11 1 21
-7 24 -19z m300 14 c-3 -3 -12 -4 -19 -1 -8 3 -5 6 6 6 11 1 17 -2 13 -5z
m-627 -8 c0 -3 -4 -8 -10 -11 -5 -3 -10 -1 -10 4 0 6 5 11 10 11 6 0 10 -2 10
-4z m40 0 c0 -3 -4 -8 -10 -11 -5 -3 -10 -1 -10 4 0 6 5 11 10 11 6 0 10 -2
10 -4z m200 -16 c0 -5 -4 -10 -10 -10 -5 0 -10 5 -10 10 0 6 5 10 10 10 6 0
10 -4 10 -10z m-2998 -155 c18 -49 34 -82 36 -72 6 30 19 18 27 -25 5 -24 10
-35 12 -25 7 27 21 11 15 -18 -2 -14 -10 -25 -17 -25 -8 0 -12 -17 -12 -53 0
-67 -25 -117 -57 -117 -13 0 -28 6 -33 13 -15 17 -32 75 -42 138 -5 30 -13 67
-16 83 l-8 28 47 -3 c28 -3 46 0 46 6 0 25 -44 138 -66 171 -13 19 -22 40 -18
45 11 18 52 -52 86 -146z m3153 145 c3 -5 1 -10 -4 -10 -6 0 -11 5 -11 10 0 6
2 10 4 10 3 0 8 -4 11 -10z m59 1 c-9 -9 -45 -11 -39 -2 3 6 14 9 25 8 10 -1
17 -3 14 -6z m66 0 c0 -5 -7 -12 -16 -15 -14 -5 -15 -4 -4 9 14 17 20 19 20 6z
m-600 -15 c0 -3 -4 -8 -10 -11 -5 -3 -10 -1 -10 4 0 6 5 11 10 11 6 0 10 -2
10 -4z m34 -11 c-4 -8 -8 -15 -10 -15 -2 0 -4 7 -4 15 0 8 4 15 10 15 5 0 7
-7 4 -15z m46 -5 c0 -5 -4 -10 -10 -10 -5 0 -10 5 -10 10 0 6 5 10 10 10 6 0
10 -4 10 -10z m137 -32 c-3 -8 -6 -5 -6 6 -1 11 2 17 5 13 3 -3 4 -12 1 -19z
m-37 -24 c0 -13 -5 -24 -10 -24 -6 0 -9 13 -8 29 3 35 18 31 18 -5z m487 30
c-3 -3 -12 -4 -19 -1 -8 3 -5 6 6 6 11 1 17 -2 13 -5z m-647 -41 c0 -2 -5 -1
-11 3 -6 3 -15 1 -19 -6 -5 -8 -9 -3 -12 13 -5 25 -4 25 19 10 12 -8 23 -17
23 -20z m30 17 c0 -5 -2 -10 -4 -10 -3 0 -8 5 -11 10 -3 6 -1 10 4 10 6 0 11
-4 11 -10z m380 6 c0 -2 -8 -10 -17 -17 -16 -13 -17 -12 -4 4 13 16 21 21 21
13z m204 -11 c4 -10 -1 -15 -14 -15 -11 0 -20 5 -20 11 0 5 5 7 10 4 6 -3 10
-1 10 4 0 16 7 13 14 -4z m84 3 c-2 -6 -10 -14 -16 -16 -7 -2 -10 2 -6 12 7
18 28 22 22 4z m-28 -40 c0 -10 -4 -18 -9 -18 -10 0 -21 47 -13 55 8 7 22 -17
22 -37z m-200 7 c0 -8 -4 -15 -10 -15 -5 0 -10 7 -10 15 0 8 5 15 10 15 6 0
10 -7 10 -15z m103 -5 c3 -11 1 -18 -4 -14 -5 3 -9 12 -9 20 0 20 7 17 13 -6z
m137 -5 c0 -6 -7 -12 -15 -12 -8 0 -15 6 -15 12 0 6 7 12 15 12 8 0 15 -6 15
-12z m-100 1 c0 -3 -4 -8 -10 -11 -5 -3 -10 -1 -10 4 0 6 5 11 10 11 6 0 10
-2 10 -4z m-533 -58 c-3 -8 -6 -5 -6 6 -1 11 2 17 5 13 3 -3 4 -12 1 -19z
m581 15 c-20 -3 -25 -9 -22 -21 5 -15 4 -15 -5 -2 -17 24 -13 30 22 29 29 -2
29 -2 5 -6z m79 -15 c1 -10 -2 -20 -8 -23 -5 -3 -6 1 -3 9 4 11 -2 19 -17 25
l-24 10 26 -2 c16 -1 26 -7 26 -19z m-724 5 c-7 -2 -13 -12 -13 -20 0 -9 -3
-14 -6 -10 -10 10 4 37 18 36 10 0 10 -2 1 -6z m-57 -30 c-10 -10 -19 5 -10
18 6 11 8 11 12 0 2 -7 1 -15 -2 -18z m174 17 c0 -5 -2 -10 -4 -10 -3 0 -8 5
-11 10 -3 6 -1 10 4 10 6 0 11 -4 11 -10z m633 -5 c4 -8 2 -17 -3 -20 -6 -4
-10 3 -10 14 0 25 6 27 13 6z m-634 -83 c-2 -41 -9 -62 -21 -62 -7 0 -7 5 1
14 7 8 9 29 5 51 -4 25 -2 35 5 31 6 -4 10 -19 10 -34z m661 13 c0 -8 -4 -15
-10 -15 -5 0 -7 7 -4 15 4 8 8 15 10 15 2 0 4 -7 4 -15z m30 -25 c-6 -11 -5
-22 3 -30 10 -12 9 -12 -5 -1 -22 16 -24 48 -4 48 11 0 12 -5 6 -17z m-80 -15
c-7 -9 -15 -13 -18 -10 -3 2 1 11 8 20 7 9 15 13 18 10 3 -2 -1 -11 -8 -20z
m144 10 c-4 -8 -11 -15 -16 -15 -6 0 -5 6 2 15 7 8 14 15 16 15 2 0 1 -7 -2
-15z m-792 -17 c-7 -7 -12 -8 -12 -2 0 6 3 14 7 17 3 4 9 5 12 2 2 -3 -1 -11
-7 -17z m-1672 -8 c0 -6 -8 -25 -17 -43 -9 -18 -19 -48 -23 -69 -6 -30 -4 -35
8 -30 13 4 14 -2 9 -39 -3 -24 -15 -73 -27 -109 -11 -36 -22 -72 -23 -81 -2
-8 -14 -40 -29 -70 -79 -164 -98 -207 -98 -216 0 -6 -3 -13 -7 -15 -5 -1 -23
-33 -41 -70 -19 -38 -37 -68 -41 -68 -7 0 -39 -67 -54 -112 -4 -10 -11 -18
-17 -18 -5 0 -10 -6 -10 -13 0 -7 -11 -37 -25 -65 -14 -29 -25 -55 -25 -58 0
-3 -6 -20 -14 -37 -7 -18 -18 -45 -24 -62 -6 -16 -14 -39 -18 -50 -9 -25 -15
-61 -15 -100 1 -16 -5 -32 -11 -36 -16 -10 -23 -264 -9 -369 19 -149 31 -214
41 -224 6 -6 10 -24 10 -40 -1 -45 -14 -15 -30 64 -7 36 -19 84 -26 108 -8 24
-19 76 -24 115 -6 39 -14 74 -18 77 -5 3 -10 50 -11 105 -1 55 -4 150 -7 210
-7 184 -8 270 -2 280 3 6 6 30 7 54 0 25 6 48 12 52 6 3 10 15 9 25 -1 11 -1
21 0 24 6 17 12 50 14 85 2 22 4 40 6 40 3 0 10 40 13 75 1 14 6 28 11 32 13
9 15 52 3 60 -6 4 -4 12 5 22 16 16 14 56 -3 56 -5 0 -9 5 -9 11 0 6 7 9 15 5
9 -3 15 0 15 9 0 7 7 20 15 29 13 13 19 43 27 141 1 11 -2 28 -6 38 -6 13 -5
16 8 11 12 -4 16 -1 14 12 -3 24 23 104 33 104 7 0 22 52 19 66 -1 3 8 14 19
23 12 10 21 23 21 30 0 7 36 11 113 12 61 0 132 6 157 13 60 18 60 18 60 6z
m1617 -12 c-3 -8 -6 -5 -6 6 -1 11 2 17 5 13 3 -3 4 -12 1 -19z m-61 -8 c0
-12 -4 -16 -9 -11 -5 5 -6 14 -3 20 10 15 12 14 12 -9z m-26 -5 c0 -8 -4 -15
-10 -15 -5 0 -7 7 -4 15 4 8 8 15 10 15 2 0 4 -7 4 -15z m809 2 c-2 -1 -12 -9
-22 -16 -15 -12 -17 -12 -11 3 3 9 13 16 22 16 8 0 13 -1 11 -3z m-722 -13
c-3 -3 -12 -4 -19 -1 -8 3 -5 6 6 6 11 1 17 -2 13 -5z m843 -23 c0 -6 -4 -13
-10 -16 -5 -3 -10 1 -10 9 0 9 5 16 10 16 6 0 10 -4 10 -9z m110 -6 c0 -8 -4
-15 -10 -15 -5 0 -10 7 -10 15 0 8 5 15 10 15 6 0 10 -7 10 -15z m0 -35 c0 -5
-5 -10 -11 -10 -5 0 -7 5 -4 10 3 6 8 10 11 10 2 0 4 -4 4 -10z m-57 -27 c-7
-2 -19 -2 -25 0 -7 3 -2 5 12 5 14 0 19 -2 13 -5z m47 -12 c-15 -30 -30 -35
-30 -11 0 12 5 18 10 15 6 -3 10 -1 10 4 0 6 5 11 10 11 7 0 7 -6 0 -19z m-85
-29 c-8 -8 -25 10 -19 20 4 6 9 5 15 -3 4 -7 6 -15 4 -17z m155 0 c3 -3 -3 -2
-12 1 -10 4 -18 2 -18 -3 0 -6 -7 -10 -15 -10 -15 0 -21 21 -9 33 6 6 42 -8
54 -21z m-3659 -25 c4 -5 4 -18 2 -28 -5 -16 -15 -19 -73 -19 -77 0 -80 -3
-73 -71 4 -36 2 -47 -11 -52 -14 -6 -16 5 -16 89 l0 95 83 -2 c45 -2 85 -7 88
-12z m609 -7 c0 -5 -4 -10 -10 -10 -5 0 -10 5 -10 10 0 6 5 10 10 10 6 0 10
-4 10 -10z m2855 0 c3 -5 1 -10 -4 -10 -6 0 -11 5 -11 10 0 6 2 10 4 10 3 0 8
-4 11 -10z m215 -5 c-7 -9 -15 -13 -19 -10 -3 3 1 10 9 15 21 14 24 12 10 -5z
m-1110 -30 c0 -25 -14 -34 -24 -16 -8 12 3 41 15 41 5 0 9 -11 9 -25z m34 0
c-4 -8 -8 -15 -10 -15 -2 0 -4 7 -4 15 0 8 4 15 10 15 5 0 7 -7 4 -15z m976
-15 c0 -5 -2 -10 -4 -10 -3 0 -8 5 -11 10 -3 6 -1 10 4 10 6 0 11 -4 11 -10z
m84 4 c20 -8 21 -28 2 -43 -10 -9 -17 -6 -29 13 -21 31 -10 44 27 30z m-114
-19 c0 -8 -7 -15 -15 -15 -13 0 -14 3 -3 15 16 18 18 18 18 0z m-40 -11 c0 -8
-4 -12 -10 -9 -5 3 -10 10 -10 16 0 5 5 9 10 9 6 0 10 -7 10 -16z m-3540 -19
c0 -14 -4 -25 -10 -25 -11 0 -14 33 -3 43 11 11 13 8 13 -18z m3625 7 c-3 -3
-11 0 -18 7 -9 10 -8 11 6 5 10 -3 15 -9 12 -12z m100 -51 c-7 -24 -30 -28
-39 -6 -3 8 -1 15 4 15 6 0 10 -6 11 -12 0 -7 5 -3 11 10 13 27 22 22 13 -7z
m-3746 -38 c20 -43 25 -127 12 -180 -16 -60 -29 -77 -47 -62 -19 16 -18 59 1
59 28 0 31 64 9 178 -8 39 8 42 25 5z m3655 15 c-7 -11 -34 -10 -34 1 0 6 9 9
19 8 11 0 17 -5 15 -9z m36 8 c0 -3 -4 -8 -10 -11 -5 -3 -10 -1 -10 4 0 6 5
11 10 11 6 0 10 -2 10 -4z m-3780 -97 c-13 -43 -13 -82 0 -74 5 3 12 22 16 43
9 49 26 71 35 45 9 -28 -16 -123 -40 -147 -26 -25 -36 -15 -45 48 -8 50 21
159 35 134 5 -9 4 -29 -1 -49z m3814 16 c-3 -7 -14 -11 -25 -8 -21 6 -27 25
-6 21 7 -2 11 5 9 17 -2 19 -2 19 12 2 8 -11 12 -25 10 -32z m-77 21 c-3 -8
-1 -17 6 -20 7 -2 4 -5 -5 -5 -10 -1 -18 -8 -18 -18 0 -23 -6 -14 -14 22 -5
21 -4 26 3 15 9 -12 11 -12 17 3 3 9 8 17 11 17 3 0 3 -6 0 -14z m-1017 -38
c0 -6 -7 -7 -16 -4 -9 3 -20 6 -25 6 -5 0 -9 4 -9 9 0 4 11 6 25 3 14 -2 25
-9 25 -14z m1056 -35 c-7 -7 -26 7 -26 19 0 6 6 6 15 -2 9 -7 13 -15 11 -17z
m50 18 c-3 -5 1 -11 9 -15 17 -6 9 -36 -10 -36 -16 0 -29 35 -20 50 3 5 11 10
16 10 6 0 8 -4 5 -9z m54 -19 c0 -15 -2 -15 -10 -2 -13 20 -13 33 0 25 6 -3
10 -14 10 -23z m-143 -7 c0 -8 -4 -12 -9 -9 -5 3 -6 10 -3 15 9 13 12 11 12
-6z m-1024 -9 c4 -9 -3 -13 -21 -13 -15 0 -21 2 -14 4 6 3 10 9 6 14 -3 5 1 9
9 9 8 0 17 -6 20 -14z m1067 -6 c0 -5 -5 -10 -11 -10 -5 0 -7 5 -4 10 3 6 8
10 11 10 2 0 4 -4 4 -10z m-70 -35 c0 -5 -5 -3 -10 5 -5 8 -10 20 -10 25 0 6
5 3 10 -5 5 -8 10 -19 10 -25z m254 9 c3 -9 -1 -14 -14 -14 -13 0 -20 7 -20
20 0 22 25 18 34 -6z m-1274 -16 c0 -9 4 -8 10 2 8 13 10 12 10 -2 0 -11 -8
-18 -20 -18 -11 0 -20 7 -20 15 0 8 5 15 10 15 6 0 10 -6 10 -12z m1108 -25
c-21 -2 -57 -2 -80 0 -24 2 -7 4 37 4 44 0 63 -2 43 -4z m-1062 -28 c19 -14
19 -14 -1 -15 -15 0 -17 -2 -7 -9 11 -7 11 -9 -1 -14 -11 -4 -16 3 -19 24 -5
33 0 35 28 14z m1089 -26 c-4 -5 -12 -9 -18 -8 -9 0 -8 2 1 6 6 2 9 10 6 15
-4 7 -2 8 5 4 6 -4 9 -12 6 -17z m-1138 -24 c-7 -40 -2 -43 29 -14 21 20 21
20 26 1 3 -11 2 -26 -3 -33 -7 -11 -9 -10 -9 4 0 20 -11 22 -27 6 -18 -18 -33
0 -29 34 6 40 5 37 12 37 4 0 4 -16 1 -35z m100 9 c-3 -3 -12 -4 -19 -1 -8 3
-5 6 6 6 11 1 17 -2 13 -5z m-2689 -104 c-2 -60 -7 -99 -13 -98 -10 3 -12 11
-14 86 -1 53 -19 55 -27 2 -8 -47 -24 -43 -24 6 0 24 -5 34 -15 34 -12 0 -15
-13 -15 -59 0 -33 -4 -63 -10 -66 -11 -7 -14 177 -3 188 3 4 33 7 65 7 l59 0
-3 -100z m3629 60 c0 -26 -4 -40 -13 -40 -13 0 -12 18 1 61 9 28 12 23 12 -21z
m63 22 c0 -10 -8 -18 -20 -19 -17 -2 -18 1 -7 18 15 24 27 25 27 1z m-960 -13
c24 -12 54 -22 67 -23 13 0 23 -3 23 -6 0 -7 14 -8 135 -11 55 -1 110 -5 123
-10 12 -5 22 -5 22 -1 0 4 54 7 120 7 66 0 120 -3 120 -7 0 -5 -5 -8 -10 -8
-6 0 -3 -11 6 -25 15 -23 15 -25 -2 -25 -9 0 -15 3 -11 6 8 8 -18 34 -33 34
-6 0 -9 -8 -6 -17 3 -10 1 -25 -5 -33 -9 -13 -10 -12 -5 3 7 21 2 22 -18 2 -9
-9 -17 -11 -21 -5 -3 5 -2 10 4 10 6 0 8 7 4 16 -3 9 -12 13 -21 9 -8 -3 -19
0 -24 7 -6 8 -7 -1 -3 -22 6 -29 5 -33 -6 -22 -18 17 -29 15 -30 -5 0 -12 -2
-13 -6 -5 -3 7 1 20 8 30 7 9 9 14 5 10 -5 -4 -15 0 -23 10 -12 16 -13 16 -7
0 7 -20 -12 -25 -19 -5 -3 7 -6 5 -6 -5 -1 -10 3 -18 7 -18 4 0 8 -9 9 -20 2
-28 -15 -25 -19 3 -2 12 -6 20 -9 17 -3 -3 -14 2 -24 10 -17 14 -18 14 -6 -8
12 -23 12 -23 -11 -11 -13 6 -26 17 -30 23 -5 7 -8 6 -8 -3 0 -11 -4 -9 -15 5
-11 14 -14 15 -9 2 3 -10 1 -16 -8 -14 -23 3 -38 17 -32 29 5 9 3 9 -6 0 -11
-10 -11 -15 0 -30 12 -15 12 -16 0 -5 -18 15 -34 16 -24 0 4 -7 3 -8 -4 -4 -7
4 -12 14 -12 22 0 8 5 12 10 9 6 -3 10 -1 10 4 0 18 -13 12 -36 -16 l-22 -28
4 30 c4 25 3 26 -5 10 -7 -14 -10 -15 -11 -5 0 11 -7 8 -22 -10 -15 -17 -19
-19 -15 -7 6 15 3 17 -12 12 -11 -3 -22 -1 -26 4 -4 7 1 8 12 4 16 -6 16 -5 4
10 -18 22 -20 22 -32 -10 l-11 -28 -10 26 c-5 15 -18 29 -29 32 -12 3 -18 10
-14 16 3 6 1 11 -4 11 -6 0 -11 -4 -11 -10 0 -5 -6 -10 -14 -10 -8 0 -16 -6
-19 -12 -2 -7 -8 -10 -12 -6 -4 4 -3 14 3 21 7 8 9 17 5 20 -3 4 -1 7 6 7 9 0
9 5 1 20 -9 17 -8 20 8 20 10 0 38 -10 62 -21z m830 -34 c0 -8 -7 -15 -15 -15
-13 0 -14 3 -3 15 16 18 18 18 18 0z m157 8 c-4 -3 -2 -12 5 -20 10 -12 7 -13
-18 -8 -24 5 -26 4 -11 -5 18 -11 24 -50 8 -50 -10 0 -41 39 -41 52 0 4 12 13
28 21 32 17 38 19 29 10z m-1103 -12 c3 -5 -1 -15 -10 -22 -13 -10 -17 -10
-24 1 -5 8 -6 18 -4 22 7 11 31 10 38 -1z m756 -13 c0 15 46 14 67 -1 7 -5 16
-6 22 -3 15 10 0 -38 -17 -51 -21 -17 -32 -16 -32 2 0 8 -4 15 -10 15 -13 0
-13 27 0 33 6 3 5 4 -2 3 -8 -2 -13 -16 -12 -34 1 -39 -6 -40 -27 -4 -16 29
-15 67 2 41 7 -11 9 -11 9 -1z m-660 -34 c0 -26 -21 -29 -31 -4 -6 16 11 41
24 33 4 -2 7 -15 7 -29z m1092 11 c6 -29 -7 -34 -15 -6 -4 17 0 31 9 31 1 0 4
-11 6 -25z m-199 -5 c5 -21 -44 -23 -60 -2 -11 15 -12 15 -13 -4 0 -12 -6 -24
-13 -27 -15 -6 -18 34 -4 44 18 13 86 5 90 -11z m167 -9 c0 -20 6 -31 18 -34
11 -3 8 -5 -8 -6 -23 -1 -26 3 -28 34 -2 19 2 35 8 35 5 0 10 -13 10 -29z
m-33 -13 c-3 -7 -5 -2 -5 12 0 14 2 19 5 13 2 -7 2 -19 0 -25z m-1080 0 c-3
-8 -6 -5 -6 6 -1 11 2 17 5 13 3 -3 4 -12 1 -19z m983 2 c0 -11 -2 -20 -4 -20
-2 0 -6 9 -9 20 -3 11 -1 20 4 20 5 0 9 -9 9 -20z m-652 -51 c-3 -8 -7 -3 -11
10 -4 17 -3 21 5 13 5 -5 8 -16 6 -23z m78 10 c19 -22 19 -22 -3 -8 -13 8 -23
17 -23 21 0 12 6 9 26 -13z m281 15 c-3 -3 -12 -4 -19 -1 -8 3 -5 6 6 6 11 1
17 -2 13 -5z m383 -4 c0 -5 -5 -10 -11 -10 -5 0 -7 5 -4 10 3 6 8 10 11 10 2
0 4 -4 4 -10z m186 -5 c-3 -8 -1 -15 4 -15 6 0 10 -5 10 -11 0 -8 -5 -8 -15 1
-8 7 -15 9 -15 5 0 -5 -3 -6 -6 -2 -3 3 0 13 7 21 18 20 23 20 15 1z m-403 -2
c-13 -2 -33 -2 -45 0 -13 2 -3 4 22 4 25 0 35 -2 23 -4z m124 0 c-20 -2 -52
-2 -70 0 -17 2 0 4 38 4 39 0 53 -2 32 -4z m-700 -50 c-3 -10 -5 -4 -5 12 0
17 2 24 5 18 2 -7 2 -21 0 -30z m238 27 c3 -5 1 -10 -4 -10 -6 0 -11 5 -11 10
0 6 2 10 4 10 3 0 8 -4 11 -10z m485 6 c0 -3 -4 -8 -10 -11 -5 -3 -10 -1 -10
4 0 6 5 11 10 11 6 0 10 -2 10 -4z m50 -19 c0 -13 -7 -32 -16 -43 -8 -10 -13
-13 -9 -6 3 6 1 12 -4 12 -6 0 -11 8 -10 18 0 10 3 12 6 4 7 -17 23 -5 23 19
0 10 2 19 5 19 3 0 5 -10 5 -23z m121 4 c-8 -5 -11 -16 -8 -25 4 -9 2 -16 -3
-16 -11 0 -14 33 -3 43 3 4 11 7 17 7 6 0 5 -4 -3 -9z m52 -20 c14 -27 13 -29
-3 -28 -12 1 -16 7 -12 20 3 10 -1 23 -9 28 -9 5 -10 9 -2 9 6 0 18 -13 26
-29z m-600 -1 c-3 -11 -10 -23 -16 -27 -7 -4 -8 0 -4 11 4 10 7 22 7 27 0 5 4
9 9 9 5 0 7 -9 4 -20z m131 -4 c-3 -8 -13 -17 -22 -21 -13 -5 -13 -2 3 15 21
24 26 25 19 6z m134 -11 c-3 -4 -21 -1 -39 4 -28 9 -29 10 -6 7 15 -2 27 2 27
7 0 7 4 7 12 -1 6 -6 9 -14 6 -17z m93 -18 c22 -4 22 -4 -4 -6 -30 -1 -57 18
-57 41 1 8 8 5 19 -9 10 -11 29 -23 42 -26z m286 21 c-3 -8 -6 -5 -6 6 -1 11
2 17 5 13 3 -3 4 -12 1 -19z m20 0 c-3 -8 -6 -5 -6 6 -1 11 2 17 5 13 3 -3 4
-12 1 -19z m-3979 -36 c7 -2 12 6 12 19 0 17 3 20 11 12 7 -7 10 -41 8 -92 -4
-67 -8 -84 -27 -103 l-22 -22 0 27 c0 31 -6 33 -30 12 -28 -25 -44 6 -48 92
l-4 74 25 -6 c20 -5 28 -2 38 17 l13 23 6 -24 c3 -14 11 -26 18 -29z m3367 20
c-8 -8 -25 10 -19 20 4 6 9 5 15 -3 4 -7 6 -15 4 -17z m-165 8 c0 -5 -5 -10
-11 -10 -5 0 -7 5 -4 10 3 6 8 10 11 10 2 0 4 -4 4 -10z m50 0 c0 -5 -4 -10
-10 -10 -5 0 -10 5 -10 10 0 6 5 10 10 10 6 0 10 -4 10 -10z m-233 -32 c-3 -7
-5 -2 -5 12 0 14 2 19 5 13 2 -7 2 -19 0 -25z m-157 -3 c0 -16 -6 -25 -15 -25
-12 0 -13 4 -6 19 6 10 7 21 4 25 -3 3 -1 6 5 6 7 0 12 -11 12 -25z m80 10
c11 -13 10 -14 -4 -9 -9 3 -16 10 -16 15 0 13 6 11 20 -6z m618 8 c-10 -2 -28
-2 -40 0 -13 2 -5 4 17 4 22 1 32 -1 23 -4z m49 1 c-3 -3 -12 -4 -19 -1 -8 3
-5 6 6 6 11 1 17 -2 13 -5z m543 -49 c0 -14 -4 -25 -9 -25 -4 0 -6 11 -3 25 2
14 6 25 8 25 2 0 4 -11 4 -25z m-1393 -7 c-3 -8 -6 -5 -6 6 -1 11 2 17 5 13 3
-3 4 -12 1 -19z m260 7 c8 -9 13 -18 11 -21 -3 -2 -13 5 -23 16 -21 23 -11 27
12 5z m103 5 c0 -5 -5 -10 -11 -10 -5 0 -7 5 -4 10 3 6 8 10 11 10 2 0 4 -4 4
-10z m-184 -14 c15 6 17 4 7 -6 -14 -15 -43 -7 -43 12 0 11 2 11 8 0 5 -7 16
-10 28 -6z m-152 -11 c-4 -8 -11 -15 -16 -15 -6 0 -5 6 2 15 7 8 14 15 16 15
2 0 1 -7 -2 -15z m71 5 c3 -5 1 -10 -4 -10 -6 0 -11 5 -11 10 0 6 2 10 4 10 3
0 8 -4 11 -10z m435 0 c0 -5 -7 -7 -15 -4 -8 4 -15 8 -15 10 0 2 7 4 15 4 8 0
15 -4 15 -10z m-200 -25 c0 -23 -4 -25 -37 -23 -37 1 -37 1 -5 5 24 3 32 9 32
24 0 10 2 19 5 19 3 0 5 -11 5 -25z m40 -9 c0 -3 -4 -8 -10 -11 -5 -3 -10 -1
-10 4 0 6 5 11 10 11 6 0 10 -2 10 -4z m398 -3 c-10 -2 -28 -2 -40 0 -13 2 -5
4 17 4 22 1 32 -1 23 -4z m-640 -10 c-26 -2 -71 -2 -100 0 -29 2 -8 3 47 3 55
0 79 -1 53 -3z m110 0 c-10 -2 -28 -2 -40 0 -13 2 -5 4 17 4 22 1 32 -1 23 -4z
m1202 -9 c0 -8 -19 -13 -24 -6 -3 5 1 9 9 9 8 0 15 -2 15 -3z m-3045 -37 c1
-7 11 -34 23 -60 12 -27 20 -53 16 -58 -3 -5 -1 -9 4 -9 5 0 14 -12 21 -27 10
-22 9 -29 -4 -42 -14 -14 -15 -13 -9 16 5 25 2 33 -14 42 -22 12 -67 81 -52
81 5 0 7 6 5 13 -3 6 -7 27 -9 45 -3 25 -1 31 8 22 6 -6 11 -16 11 -23z m2257
-7 c6 0 9 -2 6 -5 -13 -14 -35 7 -30 28 l7 22 3 -22 c2 -13 8 -23 14 -23z
m776 15 c2 -1 -3 -5 -11 -8 -7 -3 -19 4 -26 15 -11 18 -10 18 11 7 13 -6 24
-13 26 -14z m-991 9 c-3 -3 -12 -4 -19 -1 -8 3 -5 6 6 6 11 1 17 -2 13 -5z
m400 -16 c-3 -8 -6 -5 -6 6 -1 11 2 17 5 13 3 -3 4 -12 1 -19z m-663 -4 c3 -8
2 -12 -4 -9 -6 3 -10 10 -10 16 0 14 7 11 14 -7z m-1806 -40 c-10 -10 -28 6
-28 24 0 15 1 15 17 -1 9 -9 14 -19 11 -23z m2097 13 c15 -4 14 -5 -7 -6 -21
-1 -28 4 -28 17 0 11 3 13 8 6 4 -7 16 -14 27 -17z m-225 9 c0 -2 -9 -6 -20
-9 -11 -3 -18 -1 -14 4 5 9 34 13 34 5z m280 -4 c0 -5 -7 -9 -15 -9 -8 0 -12
4 -9 9 3 4 9 8 15 8 5 0 9 -4 9 -8z m225 -20 c-3 -3 -11 0 -18 7 -9 10 -8 11
6 5 10 -3 15 -9 12 -12z m-64 -19 c-12 -20 -14 -14 -5 12 4 9 9 14 11 11 3 -2
0 -13 -6 -23z m519 -15 c-8 -7 -12 -9 -8 -4 4 5 2 18 -4 30 -10 20 -10 20 8 4
16 -15 16 -20 4 -30z m220 30 c0 -14 -46 -21 -70 -11 -13 6 3 11 63 22 4 0 7
-5 7 -11z m-293 -35 c-3 -10 -5 -4 -5 12 0 17 2 24 5 18 2 -7 2 -21 0 -30z
m113 16 c0 -11 -4 -18 -10 -14 -5 3 -7 12 -3 20 7 21 13 19 13 -6z m84 6 c4
-12 0 -14 -19 -11 -14 3 -25 0 -25 -5 0 -6 -4 -7 -10 -4 -18 11 -11 27 10 22
11 -3 20 -1 20 4 0 15 17 10 24 -6z m-4054 -97 c0 -84 -4 -107 -19 -127 -21
-28 -41 -21 -41 16 0 20 3 23 13 14 21 -17 27 -3 27 59 0 39 -5 62 -15 70 -17
14 -22 6 -27 -44 -2 -16 -9 -31 -16 -34 -10 -3 -13 7 -10 39 3 40 1 44 -18 42
-16 -2 -24 5 -28 23 -10 38 0 44 70 44 l64 0 0 -102z m3090 86 c0 -2 -9 -4
-20 -4 -11 0 -20 4 -20 9 0 5 9 7 20 4 11 -3 20 -7 20 -9z m110 7 c0 -17 -18
-21 -24 -6 -3 9 0 15 9 15 8 0 15 -4 15 -9z m980 -1 c0 -5 -4 -10 -10 -10 -5
0 -10 5 -10 10 0 6 5 10 10 10 6 0 10 -4 10 -10z m-1437 -15 c-3 -9 -8 -14
-10 -11 -3 3 -2 9 2 15 9 16 15 13 8 -4z m204 -22 c-3 -10 -5 -4 -5 12 0 17 2
24 5 18 2 -7 2 -21 0 -30z m953 16 c0 -5 -4 -9 -10 -9 -5 0 -10 7 -10 16 0 8
5 12 10 9 6 -3 10 -10 10 -16z m-913 -11 c-3 -8 -6 -5 -6 6 -1 11 2 17 5 13 3
-3 4 -12 1 -19z m-1877 -20 c0 -5 -4 -6 -10 -3 -5 3 -7 0 -4 -8 3 -8 0 -18 -6
-22 -16 -10 -32 17 -17 28 9 6 9 10 -2 14 -11 4 -11 7 0 14 14 8 39 -6 39 -23z
m1715 22 c3 -5 1 -10 -4 -10 -6 0 -11 5 -11 10 0 6 2 10 4 10 3 0 8 -4 11 -10z
m1335 -20 c0 -5 -9 -10 -20 -10 -11 0 -20 -5 -20 -11 0 -5 4 -8 9 -5 5 4 8 -2
7 -11 -2 -10 -7 -17 -12 -16 -12 2 -17 30 -10 49 6 16 46 20 46 4z m-534 -25
c10 -40 -2 -65 -66 -145 -34 -41 -76 -97 -94 -125 -52 -78 -134 -171 -193
-216 -40 -32 -53 -48 -53 -68 0 -21 -17 -41 -76 -91 -42 -36 -81 -64 -85 -63
-5 2 -9 -1 -9 -5 0 -5 -17 -18 -37 -29 -21 -12 -54 -38 -72 -57 -19 -20 -40
-36 -47 -36 -6 0 -17 -7 -24 -15 -7 -8 -18 -15 -25 -15 -7 0 -30 -8 -51 -17
-47 -20 -47 -20 -104 -32 -64 -14 -97 -13 -112 3 -11 11 -15 6 -23 -32 -10
-46 -11 -47 -60 -55 -65 -11 -202 6 -253 32 -22 11 -42 18 -45 14 -3 -3 -9 8
-13 23 -21 95 -20 93 -28 46 -9 -51 -34 -61 -90 -38 -56 23 -146 86 -146 102
0 8 -10 14 -24 14 -18 0 -23 5 -20 18 2 9 -9 32 -26 51 -26 29 -30 42 -30 88
0 47 2 54 18 49 9 -2 33 -7 52 -10 31 -5 33 -5 13 6 -13 6 -23 15 -23 20 0 4
-5 8 -10 8 -18 0 -69 64 -70 86 0 11 9 29 20 39 18 16 33 17 162 11 109 -5
146 -11 154 -22 9 -12 13 -12 16 -2 4 10 50 14 200 16 l196 2 6 -34 c5 -25 11
-33 24 -30 9 2 85 11 167 20 83 9 157 17 165 18 84 13 308 137 414 230 44 39
97 85 116 101 19 17 64 60 100 98 35 37 68 67 72 67 4 0 10 -11 14 -25z m-748
-2 c-26 -2 -71 -2 -100 0 -29 2 -8 3 47 3 55 0 79 -1 53 -3z m1182 -8 c0 -8
-4 -15 -8 -15 -5 0 -9 7 -9 15 0 8 4 15 9 15 4 0 8 -7 8 -15z m-682 -20 c-3
-3 -9 2 -12 12 -6 14 -5 15 5 6 7 -7 10 -15 7 -18z m638 16 c-4 -5 -1 -12 4
-14 6 -3 5 -4 -2 -3 -15 3 -23 26 -8 26 6 0 9 -4 6 -9z m74 -12 c0 -5 -4 -9
-10 -9 -5 0 -10 7 -10 16 0 8 5 12 10 9 6 -3 10 -10 10 -16z m-4200 -12 c0
-13 -7 -32 -15 -43 -14 -18 -14 -18 -15 8 0 32 9 58 21 58 5 0 9 -10 9 -23z
m3104 8 c-4 -8 -8 -15 -10 -15 -2 0 -4 7 -4 15 0 8 4 15 10 15 5 0 7 -7 4 -15z
m921 -5 c3 -5 1 -10 -4 -10 -6 0 -11 5 -11 10 0 6 2 10 4 10 3 0 8 -4 11 -10z
m-2905 -21 c-7 -11 -14 -19 -16 -16 -7 7 7 37 17 37 6 0 5 -9 -1 -21z m197
-31 c-3 -7 -5 -2 -5 12 0 14 2 19 5 13 2 -7 2 -19 0 -25z m2263 15 c0 -5 -5
-15 -10 -23 -8 -12 -10 -11 -10 8 0 12 5 22 10 22 6 0 10 -3 10 -7z m667 -15
c-3 -8 -6 -5 -6 6 -1 11 2 17 5 13 3 -3 4 -12 1 -19z m37 14 c3 -5 -1 -9 -9
-9 -8 0 -15 4 -15 9 0 4 4 8 9 8 6 0 12 -4 15 -8z m41 -2 c3 -6 -1 -7 -9 -4
-18 7 -21 14 -7 14 6 0 13 -4 16 -10z m-853 -32 c-7 -7 -12 -8 -12 -2 0 6 3
14 7 17 3 4 9 5 12 2 2 -3 -1 -11 -7 -17z m684 -8 c-3 -20 -2 -29 4 -25 12 7
50 -3 50 -13 0 -4 -18 -6 -40 -4 -22 2 -40 8 -40 14 0 5 -4 6 -10 3 -5 -3 -10
-1 -10 5 0 6 8 10 18 8 9 -2 18 4 18 12 3 26 4 30 10 30 4 0 4 -14 0 -30z
m-655 -17 c-8 -15 -10 -15 -11 -2 0 17 10 32 18 25 2 -3 -1 -13 -7 -23z
m-2156 7 c3 -5 1 -10 -4 -10 -6 0 -11 5 -11 10 0 6 2 10 4 10 3 0 8 -4 11 -10z
m2528 -23 c-3 -4 -6 -7 -7 -5 -1 2 -8 12 -16 22 -14 18 -14 18 7 6 12 -8 19
-18 16 -23z m111 24 c3 -5 -1 -11 -9 -14 -9 -4 -12 -1 -8 9 6 16 10 17 17 5z
m67 -21 c6 0 7 5 4 10 -3 6 1 10 9 10 16 0 23 -19 9 -21 -44 -8 -50 -6 -45 15
5 18 7 18 10 4 2 -10 8 -18 13 -18z m219 6 c0 -19 -38 -16 -43 3 -3 14 1 17
19 13 13 -2 24 -10 24 -16z m-794 -23 c-10 -10 -19 5 -10 18 6 11 8 11 12 0 2
-7 1 -15 -2 -18z m-2067 -105 c99 -211 204 -347 385 -501 101 -87 189 -139
301 -180 176 -63 252 -77 422 -77 112 0 150 -8 122 -25 -6 -4 -56 -10 -112
-12 -310 -16 -655 118 -854 332 -81 86 -103 113 -103 123 0 4 -15 25 -33 48
-27 35 -82 136 -120 224 -6 14 -17 32 -23 40 -7 8 -13 18 -13 23 -1 17 -14 63
-21 72 -13 18 -20 45 -12 45 5 0 32 -51 61 -112z m1461 100 c0 -11 -12 -10
-30 2 -12 7 -10 9 8 7 12 0 22 -5 22 -9z m210 8 c0 -3 -4 -8 -10 -11 -5 -3
-10 -1 -10 4 0 6 5 11 10 11 6 0 10 -2 10 -4z m914 -5 c10 -15 -18 -19 -32 -5
-11 12 -9 14 7 14 11 0 22 -4 25 -9z m-3921 -75 c58 -42 53 -73 -28 -157 l-65
-67 0 48 c0 30 5 52 15 60 22 18 19 89 -5 120 -37 47 -21 84 19 47 14 -13 43
-35 64 -51z m2867 64 c0 -5 -5 -10 -11 -10 -5 0 -7 5 -4 10 3 6 8 10 11 10 2
0 4 -4 4 -10z m960 -6 c0 -8 -4 -12 -10 -9 -5 3 -10 10 -10 16 0 5 5 9 10 9 6
0 10 -7 10 -16z m40 -6 c0 -19 -2 -20 -10 -8 -13 19 -13 30 0 30 6 0 10 -10
10 -22z m100 7 c0 -8 -2 -15 -4 -15 -2 0 -6 7 -10 15 -3 8 -1 15 4 15 6 0 10
-7 10 -15z m70 -6 c0 -6 -4 -7 -10 -4 -5 3 -10 11 -10 16 0 6 5 7 10 4 6 -3
10 -11 10 -16z m117 -1 c-3 -8 -6 -5 -6 6 -1 11 2 17 5 13 3 -3 4 -12 1 -19z
m-1077 8 c0 -3 -4 -8 -10 -11 -5 -3 -10 -1 -10 4 0 6 5 11 10 11 6 0 10 -2 10
-4z m677 -11 c8 -9 13 -18 11 -21 -3 -2 -13 5 -23 16 -21 23 -11 27 12 5z
m442 -20 c-7 -6 -470 -28 -500 -23 -13 2 48 8 136 12 88 4 205 11 260 15 97 7
113 6 104 -4z m121 -20 c0 -8 -4 -15 -10 -15 -5 0 -10 7 -10 15 0 8 5 15 10
15 6 0 10 -7 10 -15z m-71 -23 c-8 -3 -19 -9 -26 -14 -8 -6 -15 -2 -23 14 -10
21 -10 21 3 5 14 -16 15 -16 20 4 5 20 8 21 23 9 13 -11 13 -15 3 -18z m-1182
-8 c-3 -3 -12 -4 -19 -1 -8 3 -5 6 6 6 11 1 17 -2 13 -5z m1028 -24 c-3 -5
-16 -10 -28 -9 -20 1 -20 2 3 9 14 4 26 8 28 9 2 1 0 -3 -3 -9z m-885 -21 c0
-11 -5 -17 -10 -14 -6 4 -8 10 -5 15 3 4 -1 11 -7 13 -8 3 -6 6 5 6 11 1 17
-6 17 -20z m1060 12 c0 -5 -11 -11 -24 -13 -17 -4 -23 -1 -19 9 6 14 43 18 43
4z m-1163 -7 c-3 -3 -12 -4 -19 -1 -8 3 -5 6 6 6 11 1 17 -2 13 -5z m760 0
c-3 -3 -12 -4 -19 -1 -8 3 -5 6 6 6 11 1 17 -2 13 -5z m-1119 -18 c-7 -8 -15
-12 -17 -11 -5 6 10 25 20 25 5 0 4 -6 -3 -14z m69 -48 c-2 -13 -4 -3 -4 22 0
25 2 35 4 23 2 -13 2 -33 0 -45z m241 55 c-10 -2 -26 -2 -35 0 -10 3 -2 5 17
5 19 0 27 -2 18 -5z m1226 -35 c6 -5 1 -8 -11 -8 -13 0 -23 6 -23 13 0 20 14
31 19 15 2 -7 9 -16 15 -20z m-287 -3 c-4 -8 -11 -15 -17 -15 -6 0 -6 7 2 20
14 22 24 19 15 -5z m-1234 -2 c-7 -2 -19 -2 -25 0 -7 3 -2 5 12 5 14 0 19 -2
13 -5z m17 -29 c0 -2 -11 -4 -25 -4 -14 0 -25 4 -25 9 0 4 11 6 25 3 14 -2 25
-6 25 -8z m894 -2 c3 -5 -1 -9 -9 -9 -8 0 -15 4 -15 9 0 4 4 8 9 8 6 0 12 -4
15 -8z m510 -7 c4 -10 -1 -15 -14 -15 -11 0 -20 7 -20 15 0 8 6 15 14 15 8 0
16 -7 20 -15z m-251 -2 c-7 -2 -19 -2 -25 0 -7 3 -2 5 12 5 14 0 19 -2 13 -5z
m41 -8 c3 -8 1 -15 -4 -15 -6 0 -10 7 -10 15 0 8 2 15 4 15 2 0 6 -7 10 -15z
m36 6 c0 -17 -18 -21 -24 -6 -3 9 0 15 9 15 8 0 15 -4 15 -9z m33 -11 c-3 -11
-7 -20 -9 -20 -2 0 -4 9 -4 20 0 11 4 20 9 20 5 0 7 -9 4 -20z m-143 -10 c0
-5 -4 -10 -10 -10 -5 0 -10 5 -10 10 0 6 5 10 10 10 6 0 10 -4 10 -10z m40 6
c0 -3 -4 -8 -10 -11 -5 -3 -10 -1 -10 4 0 6 5 11 10 11 6 0 10 -2 10 -4z
m-252 -58 c-2 -12 -9 -23 -16 -26 -7 -2 -10 2 -6 11 3 8 1 18 -5 22 -6 3 -11
13 -11 21 0 12 4 12 21 4 13 -7 19 -19 17 -32z m248 19 l169 -3 -171 -2 c-153
-2 -173 0 -185 16 -12 15 -12 16 2 5 10 -9 71 -13 185 -16z m264 19 c0 -2 -7
-9 -15 -16 -12 -10 -15 -10 -15 4 0 9 7 16 15 16 8 0 15 -2 15 -4z m67 -18
c-3 -8 -6 -5 -6 6 -1 11 2 17 5 13 3 -3 4 -12 1 -19z m-2447 -37 c0 -45 -15
-62 -24 -28 -10 39 -7 67 9 67 11 0 15 -11 15 -39z m1712 12 c-3 -16 -7 -22
-10 -15 -4 13 4 42 11 42 2 0 2 -12 -1 -27z m-42 -15 c0 -16 -3 -19 -11 -11
-6 6 -8 16 -5 22 11 17 16 13 16 -11z m455 12 c-3 -5 -10 -10 -16 -10 -5 0 -9
5 -9 10 0 6 7 10 16 10 8 0 12 -4 9 -10z m-345 -16 c0 -2 -9 -4 -20 -4 -11 0
-20 4 -20 9 0 5 9 7 20 4 11 -3 20 -7 20 -9z m744 3 c-3 -8 -11 -14 -19 -14
-8 0 -15 6 -15 14 0 7 9 13 20 13 12 0 17 -5 14 -13z m-44 -19 c0 -4 -9 -8
-21 -8 -11 0 -18 4 -15 8 3 5 12 9 21 9 8 0 15 -4 15 -9z m-260 -14 c0 -8 -5
-12 -10 -9 -6 4 -8 11 -5 16 9 14 15 11 15 -7z m120 -4 c-20 -13 -40 -13 -40
0 0 6 12 10 28 10 21 0 24 -2 12 -10z m-486 -7 c-5 -5 -12 -12 -16 -18 -4 -6
-8 -2 -8 8 0 9 7 17 17 17 9 0 12 -3 7 -7z m344 -19 c7 4 12 2 12 -3 0 -6 -10
-11 -23 -11 -16 0 -23 6 -24 21 -2 20 -1 20 11 4 7 -10 18 -15 24 -11z m236
11 c-4 -8 -10 -15 -15 -15 -5 0 -9 7 -9 15 0 8 7 15 15 15 9 0 12 -6 9 -15z
m-2457 -12 c49 -23 52 -28 42 -72 -5 -20 -9 -52 -9 -71 0 -49 -13 -67 -31 -46
-8 9 -19 23 -26 30 -21 24 -30 79 -19 115 8 26 7 36 -2 39 -14 4 -16 22 -2 22
5 0 26 -8 47 -17z m2153 -25 c0 -5 -9 -8 -19 -8 -11 0 -22 3 -24 8 -3 4 6 7
19 7 13 0 24 -3 24 -7z m347 -4 c-3 -3 -12 -4 -19 -1 -8 3 -5 6 6 6 11 1 17
-2 13 -5z m-577 -52 c0 -9 -44 25 -48 37 -2 7 7 3 22 -10 14 -12 26 -25 26
-27z m435 38 c4 -7 -3 -9 -22 -5 -23 5 -25 4 -10 -5 9 -6 17 -16 17 -22 0 -6
-7 -5 -17 3 -14 12 -16 12 -11 -2 3 -9 3 -22 -2 -29 -5 -8 -9 3 -12 29 -3 39
-2 41 24 41 15 0 30 -5 33 -10z m175 -11 c0 -11 -4 -17 -10 -14 -5 3 -10 0
-11 -7 0 -7 -4 -4 -8 7 -5 12 -4 23 3 27 19 13 26 9 26 -13z m30 11 c0 -5 -4
-10 -10 -10 -5 0 -10 5 -10 10 0 6 5 10 10 10 6 0 10 -4 10 -10z m-895 -29 c3
-6 -4 -9 -15 -8 -11 1 -20 5 -20 9 0 11 28 10 35 -1z m150 -11 c3 -6 -1 -7 -9
-4 -18 7 -21 14 -7 14 6 0 13 -4 16 -10z m252 -12 c-3 -8 -6 -5 -6 6 -1 11 2
17 5 13 3 -3 4 -12 1 -19z m61 -4 c7 -14 8 -23 2 -19 -15 9 -32 45 -22 45 5 0
14 -12 20 -26z m422 6 c0 -5 -4 -10 -10 -10 -5 0 -10 5 -10 10 0 6 5 10 10 10
6 0 10 -4 10 -10z m-759 -43 c15 -4 14 -4 -3 -3 -16 1 -23 8 -24 21 -1 14 0
15 3 3 2 -9 13 -19 24 -21z m89 18 c0 -16 -6 -25 -15 -25 -18 0 -19 4 -3 30
16 26 18 25 18 -5z m456 -2 c-10 -10 -19 5 -10 18 6 11 8 11 12 0 2 -7 1 -15
-2 -18z m-759 -3 c-1 -13 -8 -20 -22 -20 -18 1 -19 1 -2 11 9 6 15 14 12 20
-4 5 -2 9 4 9 5 0 9 -9 8 -20z m73 -13 c10 -4 8 -6 -7 -6 -16 -1 -23 5 -23 17
0 10 3 13 8 6 4 -6 14 -14 22 -17z m649 9 c-2 -2 -40 -6 -84 -9 -49 -3 -67 -2
-45 2 36 9 137 14 129 7z m166 -14 c-9 -9 -35 -11 -35 -3 0 14 12 20 26 14 8
-3 12 -8 9 -11z m69 -27 c-9 -14 -18 -25 -20 -25 -3 0 1 32 5 48 1 1 8 2 16 2
14 0 13 -3 -1 -25z m-239 4 c11 -16 1 -19 -13 -3 -7 8 -8 14 -3 14 5 0 13 -5
16 -11z m155 1 c0 -5 -8 -10 -17 -10 -15 0 -16 2 -3 10 19 12 20 12 20 0z
m-1093 -22 c-3 -8 -6 -5 -6 6 -1 11 2 17 5 13 3 -3 4 -12 1 -19z m1073 -38 c0
-13 -1 -13 -10 0 -5 8 -10 22 -10 30 0 13 1 13 10 0 5 -8 10 -22 10 -30z m31
7 c-10 -9 -11 -8 -5 6 3 10 9 15 12 12 3 -3 0 -11 -7 -18z m-330 -4 c13 -16
12 -17 -3 -4 -17 13 -22 21 -14 21 2 0 10 -8 17 -17z m-260 -26 c-10 -9 -11
-8 -5 6 3 10 9 15 12 12 3 -3 0 -11 -7 -18z m-384 -9 c-3 -8 -6 -5 -6 6 -1 11
2 17 5 13 3 -3 4 -12 1 -19z m976 -5 c-7 -2 -21 -2 -30 0 -10 3 -4 5 12 5 17
0 24 -2 18 -5z m-3584 -83 c1 -13 0 -13 -9 0 -5 8 -9 24 -9 35 l0 20 9 -20 c5
-11 9 -27 9 -35z m2488 -6 c-3 -3 -12 -4 -19 -1 -8 3 -5 6 6 6 11 1 17 -2 13
-5z m80 0 c-3 -3 -12 -4 -19 -1 -8 3 -5 6 6 6 11 1 17 -2 13 -5z m-2537 -55
c0 -6 -4 -7 -10 -4 -5 3 -10 11 -10 16 0 6 5 7 10 4 6 -3 10 -11 10 -16z
m3505 -68 c3 -5 1 -12 -5 -16 -5 -3 -10 1 -10 9 0 18 6 21 15 7z m-3435 -76
c-7 -9 -15 -13 -17 -11 -7 7 7 26 19 26 6 0 6 -6 -2 -15z m64 -75 c20 -30 40
-60 46 -67 6 -7 4 -13 -6 -17 -8 -3 -12 -1 -9 4 3 5 -3 15 -14 21 -11 7 -17
19 -13 28 4 10 1 13 -10 9 -10 -4 -15 -1 -14 10 0 9 -4 16 -10 15 -6 -1 -11 3
-12 10 0 7 -4 23 -8 37 -9 33 3 20 50 -50z m3736 -350 c0 -5 -6 -10 -12 -10
-7 -1 -37 -2 -67 -3 -45 -2 -49 -1 -28 8 35 14 107 18 107 5z m135 0 c3 -5 1
-10 -4 -10 -6 0 -11 5 -11 10 0 6 2 10 4 10 3 0 8 -4 11 -10z m-3700 -430 c25
-69 78 -205 117 -303 l71 -179 66 4 c61 3 66 1 69 -19 2 -12 -4 -35 -12 -52
-9 -16 -16 -41 -16 -56 0 -25 -14 -34 -25 -15 -9 15 -25 12 -25 -5 0 -34 99
-236 162 -332 37 -57 68 -108 68 -113 0 -5 -15 5 -32 21 -44 41 -78 57 -130
64 -23 3 -51 8 -62 11 -10 3 -29 0 -42 -7 -13 -7 -25 -10 -27 -8 -2 2 -18 58
-36 124 -18 66 -37 125 -44 131 -15 14 -169 50 -254 58 l-61 7 -31 -80 c-37
-96 -68 -205 -92 -326 l-19 -90 5 111 c2 61 9 144 16 183 14 93 8 152 -23 223
-19 45 -27 55 -37 45 -10 -9 -12 -4 -9 28 l3 40 74 5 74 5 48 185 c26 102 59
217 72 255 32 93 80 215 83 212 1 -1 23 -58 49 -127z m1410 85 c74 -36 105
-75 105 -130 0 -38 -4 -47 -32 -66 -22 -16 -47 -23 -85 -24 -29 -1 -56 -5 -60
-8 -11 -11 -23 -8 -23 6 0 8 -17 25 -37 38 -22 14 -39 34 -41 47 -3 19 4 26
37 39 35 14 41 20 41 45 0 34 17 37 26 4 4 -18 15 -26 42 -31 21 -4 43 -11 50
-17 17 -15 15 -45 -4 -52 -27 -10 -34 -7 -34 20 0 21 -4 25 -22 22 -20 -3 -23
-9 -23 -43 0 -35 3 -40 25 -43 44 -7 99 16 106 44 14 55 -37 112 -131 145 -59
20 -155 26 -155 8 0 -5 -5 -7 -10 -4 -17 10 7 33 38 37 51 6 134 -11 187 -37z
m195 0 c17 -21 7 -41 -32 -61 -42 -21 -41 -21 -33 -34 5 -8 11 -8 21 1 8 6 41
12 74 14 59 3 60 2 61 -24 1 -17 3 -20 6 -8 2 9 12 17 20 17 14 0 14 3 -2 20
-10 11 -13 20 -8 20 16 0 31 -22 36 -55 l4 -30 2 31 c1 33 15 44 56 44 34 0
36 -10 17 -66 -13 -36 -24 -50 -40 -52 -12 -2 -22 1 -22 6 0 10 -36 9 -46 -1
-7 -7 -39 22 -47 43 -3 9 -6 3 -6 -13 -2 -49 -77 -58 -95 -11 -9 24 12 44 47
44 23 0 28 3 20 11 -8 8 -21 7 -47 -2 -33 -12 -36 -16 -36 -51 0 -54 -16 -47
-25 10 -3 26 -11 64 -17 84 -10 32 -8 41 7 58 21 24 67 26 85 5z m282 -92 l-5
-28 20 24 c24 29 43 21 43 -18 0 -28 -26 -59 -67 -80 -14 -7 -23 -22 -25 -43
-3 -33 -22 -48 -31 -25 -11 29 41 197 61 197 5 0 7 -12 4 -27z m-1319 -45
c-16 -29 -19 -68 -24 -288 -3 -176 -9 -265 -18 -288 -18 -44 -8 -50 19 -13 26
37 44 40 38 6 -3 -13 -2 -23 2 -20 9 6 129 -39 224 -84 74 -36 173 -107 163
-118 -3 -2 -28 11 -56 28 -67 42 -146 58 -231 48 -36 -4 -119 -10 -185 -13
l-120 -5 3 328 3 329 -25 61 c-14 33 -26 63 -26 66 0 3 52 5 115 4 63 -2 118
1 122 5 16 16 13 -14 -4 -46z m2573 -130 c12 -13 48 -73 79 -135 31 -61 63
-114 71 -117 8 -3 14 -17 14 -31 0 -38 79 -207 108 -231 l25 -21 -18 -51 c-10
-28 -29 -64 -41 -79 -22 -27 -23 -27 -24 -6 0 23 -56 83 -77 83 -7 0 -38 50
-68 110 l-55 110 -54 0 c-87 0 -103 -10 -116 -73 -11 -55 -40 -95 -59 -82 -30
18 -4 -7 49 -48 60 -47 82 -80 38 -55 -13 6 -84 30 -158 53 -112 34 -137 45
-147 65 -7 14 -13 19 -13 12 0 -7 -5 -10 -10 -7 -6 4 -7 11 -4 17 4 7 2 8 -5
4 -12 -8 -29 0 -115 48 -59 34 -71 26 -67 -43 2 -33 -4 -65 -18 -95 l-20 -46
-34 20 -34 20 -5 223 c-6 230 -10 257 -50 285 -10 7 -18 17 -18 21 0 5 89 11
198 15 227 9 277 1 317 -46 40 -47 29 -97 -32 -141 -90 -65 -143 -109 -143
-117 0 -10 133 -115 190 -148 l39 -23 6 45 c5 33 13 47 27 52 17 5 19 12 15
40 -3 18 -18 49 -33 69 l-26 35 40 0 c22 0 44 6 50 13 19 24 82 178 82 202 0
13 -11 36 -25 51 -14 15 -25 29 -25 32 0 3 28 2 61 -1 47 -4 67 -11 85 -29z
m-2069 -92 c65 -38 123 -98 123 -128 0 -24 -1 -23 -61 13 -36 23 -68 34 -114
38 -66 7 -88 5 -80 -9 3 -5 -9 -19 -27 -31 -18 -13 -38 -30 -44 -39 -7 -8 -24
-28 -39 -44 -30 -33 -28 -65 7 -103 43 -46 106 -59 261 -55 60 2 77 5 77 17 0
22 -34 36 -72 29 l-33 -7 29 31 c16 18 45 37 64 43 29 10 38 9 61 -8 14 -11
31 -35 37 -54 l12 -34 7 38 c13 68 1 249 -19 279 -16 25 -16 27 1 32 18 6 375
26 462 26 40 0 43 -2 36 -22 -4 -13 -7 -31 -7 -40 1 -21 -24 -27 -199 -42 -77
-7 -142 -16 -145 -19 -4 -3 2 -26 12 -51 l19 -46 105 0 c123 0 180 -8 180 -25
0 -14 -25 -26 -150 -71 -96 -35 -164 -74 -174 -100 -4 -12 23 -14 168 -14 95
0 194 3 220 6 l46 7 0 131 c0 173 -6 205 -38 217 -20 8 -23 12 -13 22 9 9 14
9 22 -3 8 -12 9 -11 5 5 -11 41 1 44 199 47 174 3 193 1 223 -17 38 -23 43
-62 12 -105 l-20 -28 38 -15 c58 -23 102 -79 102 -128 0 -42 -23 -69 -102
-123 -125 -83 -194 -106 -330 -106 -97 0 -98 0 -98 24 0 43 -54 44 -70 1 -11
-28 -42 -33 -296 -41 l-195 -7 6 68 c8 78 -10 85 -20 7 -10 -74 -44 -161 -91
-233 -51 -77 -90 -105 -50 -36 26 45 56 144 56 187 0 45 -20 62 -60 50 -57
-16 -209 -14 -259 4 -72 27 -156 83 -185 125 -24 34 -27 46 -21 81 5 29 13 44
28 50 12 5 16 9 9 9 -21 1 20 50 42 51 11 0 16 3 12 7 -10 10 55 73 76 73 10
0 18 6 18 14 0 7 30 39 68 69 66 55 67 55 87 37 11 -10 48 -34 82 -54z m180
-58 c-3 -8 -6 -5 -6 6 -1 11 2 17 5 13 3 -3 4 -12 1 -19z m-1084 -683 c-3 -9
-8 -14 -10 -11 -3 3 -2 9 2 15 9 16 15 13 8 -4z m-945 -110 c-4 -33 -22 -33
-26 0 -2 18 1 25 13 25 12 0 15 -7 13 -25z m2 -150 c0 -8 -7 -15 -15 -15 -16
0 -20 12 -8 23 11 12 23 8 23 -8z"/>
<path d="M1472 7340 c0 -14 2 -19 5 -12 2 6 2 18 0 25 -3 6 -5 1 -5 -13z"/>
<path d="M1650 7314 c0 -37 3 -45 16 -42 41 8 44 88 4 88 -17 0 -20 -7 -20
-46z"/>
<path d="M1784 7312 c-15 -10 -25 -40 -15 -46 4 -3 13 6 20 21 13 28 11 36 -5
25z"/>
<path d="M2132 7328 c-24 -24 -11 -78 19 -78 25 0 35 25 23 58 -11 30 -25 37
-42 20z"/>
<path d="M2561 7288 c-11 -28 8 -62 36 -66 15 -2 22 4 24 20 8 45 -1 68 -27
68 -16 0 -28 -8 -33 -22z m59 -22 c0 -9 -40 -13 -46 -5 -3 5 6 9 20 9 14 0 26
-2 26 -4z"/>
<path d="M3068 7274 c-10 -10 4 -44 18 -44 15 0 17 10 8 34 -6 16 -16 20 -26
10z"/>
<path d="M3954 7216 c-10 -25 0 -61 18 -64 24 -5 42 32 28 58 -12 23 -38 26
-46 6z"/>
<path d="M2483 7005 c-22 -19 -24 -24 -11 -25 9 0 30 11 45 25 22 19 24 24 11
25 -9 0 -30 -11 -45 -25z"/>
<path d="M2103 6870 c-30 -12 -29 -14 8 -41 34 -24 49 -16 49 29 0 24 -18 28
-57 12z"/>
<path d="M3948 6944 c-32 -17 -37 -35 -9 -27 21 5 61 43 45 43 -5 -1 -21 -8
-36 -16z"/>
<path d="M3571 6809 l-23 -9 25 -20 c35 -28 47 -25 47 10 0 32 -9 35 -49 19z"/>
<path d="M680 6880 c0 -31 3 -38 15 -34 16 6 19 31 9 58 -11 29 -24 16 -24
-24z"/>
<path d="M3040 6850 c-6 -11 -8 -20 -6 -20 3 0 10 9 16 20 6 11 8 20 6 20 -3
0 -10 -9 -16 -20z"/>
<path d="M4291 6781 c-9 -6 -7 -10 8 -14 12 -3 21 -1 21 3 0 14 -15 19 -29 11z"/>
<path d="M610 4690 c0 -38 32 -149 47 -161 37 -32 87 105 53 146 -23 27 -28
16 -22 -52 4 -48 2 -64 -7 -59 -6 4 -11 33 -11 67 0 55 -2 60 -26 69 -34 13
-34 13 -34 -10z"/>
<path d="M4133 3895 c-10 -10 -9 -16 4 -27 14 -11 16 -11 10 4 -3 9 -1 18 6
21 6 2 7 6 2 9 -6 3 -15 0 -22 -7z"/>
<path d="M610 3671 c0 -20 13 -41 21 -35 15 9 10 44 -6 44 -8 0 -15 -4 -15 -9z"/>
<path d="M678 3662 c-6 -22 1 -44 13 -36 12 7 12 41 0 48 -5 3 -11 -2 -13 -12z"/>
<path d="M650 3134 c0 -22 2 -24 14 -14 8 6 12 18 9 26 -9 23 -23 16 -23 -12z"/>
<path d="M1595 1245 c-18 -43 -67 -192 -79 -237 -6 -26 -4 -28 26 -29 44 -2
172 2 176 6 6 5 -78 261 -92 280 -13 18 -15 17 -31 -20z"/>
<path d="M2953 1434 c-4 -11 1 -22 12 -30 28 -21 35 -17 35 16 0 23 -4 30 -20
30 -11 0 -23 -7 -27 -16z"/>
<path d="M3260 1547 c-22 -9 -23 -11 -6 -14 10 -3 23 0 29 6 16 16 5 20 -23 8z"/>
<path d="M3480 1462 c0 -5 7 -13 16 -16 10 -4 14 -1 12 6 -5 15 -28 23 -28 10z"/>
<path d="M3308 1403 c7 -3 16 -2 19 1 4 3 -2 6 -13 5 -11 0 -14 -3 -6 -6z"/>
<path d="M4230 1173 c-60 -6 -61 -8 -45 -54 8 -23 15 -56 15 -73 0 -17 4 -26
8 -20 4 6 23 19 42 29 19 10 62 36 94 58 55 37 58 41 41 53 -18 13 -74 16
-155 7z"/>
<path d="M4778 1064 c-13 -28 -1 -44 35 -44 20 0 21 10 5 45 -14 32 -25 32
-40 -1z"/>
<path d="M3662 1153 c-16 -3 -22 -9 -18 -20 3 -8 6 -20 6 -26 0 -7 4 -18 9
-26 7 -11 22 -7 80 19 39 18 70 38 68 44 -4 11 -103 17 -145 9z"/>
<path d="M2594 1105 c-18 -14 -18 -14 4 -8 12 3 22 9 22 14 0 12 -3 11 -26 -6z"/>
<path d="M3790 1006 c-20 -8 -59 -25 -88 -40 l-52 -26 0 -57 0 -56 46 7 c60 8
167 59 193 93 33 41 27 53 -25 53 -41 0 -46 2 -41 20 3 11 4 20 4 19 -1 0 -18
-6 -37 -13z"/>
<path d="M4477 6328 c-6 -4 -14 -5 -18 -2 -4 2 -10 0 -14 -6 -3 -5 -11 -10
-16 -10 -6 0 -7 5 -4 10 9 14 -1 13 -34 -4 -15 -8 -37 -15 -47 -15 -41 -1 -53
-5 -58 -17 -3 -8 -12 -11 -21 -8 -8 3 -15 1 -15 -6 0 -6 -4 -8 -10 -5 -5 3
-10 -1 -10 -10 0 -9 5 -13 10 -10 6 3 10 2 10 -4 0 -9 -62 -35 -85 -36 -22 -1
-105 -61 -100 -72 4 -11 -14 -18 -38 -14 -4 1 -3 -8 3 -19 8 -14 8 -19 0 -18
-6 2 -18 -10 -28 -27 -9 -16 -23 -35 -29 -43 -7 -7 -13 -20 -13 -28 0 -8 -4
-14 -9 -14 -8 0 -23 -30 -26 -50 0 -3 -4 -11 -8 -17 -5 -7 -5 -17 -2 -23 3 -5
1 -10 -4 -10 -6 0 -10 -3 -10 -7 1 -5 0 -11 -1 -15 -1 -5 -3 -11 -5 -15 -1 -5
-7 -21 -14 -38 -16 -39 -24 -178 -10 -169 8 4 8 1 1 -13 -8 -14 -6 -37 5 -84
9 -35 19 -65 23 -67 4 -1 5 -13 3 -25 -7 -35 23 -63 121 -116 49 -26 123 -75
164 -107 42 -32 78 -59 81 -59 3 0 21 -18 41 -39 19 -22 46 -51 59 -65 68 -74
155 -196 239 -338 24 -40 50 -77 57 -83 7 -6 44 -14 82 -17 176 -14 422 87
539 224 27 31 48 63 48 70 -1 7 4 13 12 13 8 0 14 9 14 20 0 11 5 20 11 20 6
0 9 6 6 13 -2 6 5 23 17 36 l21 24 -25 -12 c-23 -11 -23 -10 4 12 16 14 26 29
23 34 -3 5 4 18 16 28 20 17 20 20 5 23 -10 2 -18 7 -18 12 0 5 -10 11 -22 13
-20 4 -19 4 2 3 28 -2 66 29 49 40 -8 4 -7 9 2 15 10 6 8 9 -9 9 -13 0 -20 4
-17 10 4 6 10 8 15 5 5 -3 11 -1 15 5 3 5 2 10 -4 10 -6 0 -8 7 -5 15 5 12 2
14 -12 8 -17 -6 -17 -5 -5 11 8 9 16 32 18 49 1 18 0 27 -5 20 -10 -16 -62
-28 -62 -14 0 6 6 8 14 5 20 -8 43 35 26 46 -9 6 -7 11 9 19 25 14 30 61 5 61
-10 0 -14 6 -10 15 4 12 -3 15 -34 15 -60 0 -48 20 13 22 l52 1 -55 7 c-30 4
-50 8 -45 9 16 4 69 12 83 13 7 1 11 6 9 12 -4 11 -7 12 -42 15 -10 1 -15 11
-14 29 2 23 2 24 6 5 2 -13 9 -23 15 -23 5 0 7 7 4 16 -5 12 -2 15 10 10 14
-5 15 -4 5 8 -16 19 -43 14 -52 -10 -7 -18 -11 -13 -13 19 -1 6 5 13 12 13 48
5 48 5 25 16 -12 6 -23 20 -25 32 -3 18 -9 21 -46 19 -25 -1 -40 2 -37 7 4 6
25 11 48 12 l42 1 -45 7 c-25 4 -34 8 -21 8 13 1 32 12 43 24 19 22 19 23 -1
32 -12 5 -20 16 -19 24 2 8 -3 17 -11 20 -8 3 -11 0 -7 -7 4 -6 1 -11 -8 -11
-8 0 -21 -3 -30 -6 -11 -4 -16 -1 -16 11 0 9 4 14 9 11 5 -3 12 1 15 10 3 8 2
13 -2 11 -4 -3 -16 -1 -27 3 -18 7 -16 10 15 24 19 8 29 15 21 16 -7 0 -11 6
-7 15 4 11 -2 15 -24 15 -33 0 -41 16 -12 23 16 4 16 5 0 6 -10 0 -18 8 -18
16 0 8 -6 15 -13 15 -20 0 -57 35 -57 53 0 9 -5 19 -10 22 -7 5 -8 11 -1 19 7
8 5 12 -7 13 -51 4 -62 8 -62 26 0 11 4 15 12 11 7 -5 8 -3 4 5 -5 7 -15 10
-23 7 -11 -5 -13 -1 -8 17 5 16 4 19 -4 11 -6 -6 -14 -21 -16 -34 -6 -30 -25
-51 -25 -27 0 9 5 17 11 17 5 0 8 4 5 9 -8 12 -46 2 -46 -12 0 -6 -3 -7 -6 -4
-11 10 17 37 37 37 11 0 19 7 19 15 0 17 -16 20 -25 5 -3 -5 -12 -10 -18 -10
-8 0 -8 3 1 9 10 6 10 10 -2 20 -8 7 -19 10 -25 7 -5 -3 -11 1 -15 9 -3 8 -15
15 -27 15 -14 0 -19 5 -16 15 4 8 1 17 -5 21 -6 4 -8 3 -4 -4 8 -13 -31 -42
-56 -42 -30 0 -20 17 15 24 25 5 29 9 17 16 -9 6 -18 6 -24 0 -16 -16 -24 -11
-19 10 5 19 4 19 -26 4 -31 -16 -51 -12 -51 9 0 9 2 9 8 0 5 -8 13 -9 22 -3
29 18 -13 29 -57 15 -19 -6 -22 -4 -18 14 2 12 0 19 -4 17 -14 -9 -121 -23
-121 -16 0 3 5 11 10 16 12 12 -114 14 -133 2z m43 -18 c0 -5 -4 -10 -10 -10
-5 0 -10 5 -10 10 0 6 5 10 10 10 6 0 10 -4 10 -10z m-124 -27 c-10 -10 -19 5
-10 18 6 11 8 11 12 0 2 -7 1 -15 -2 -18z m64 1 c0 -8 -4 -12 -10 -9 -5 3 -10
10 -10 16 0 5 5 9 10 9 6 0 10 -7 10 -16z m-150 -16 c0 7 12 12 28 11 25 0 25
-1 -11 -16 -39 -16 -55 -13 -42 7 6 9 10 9 16 -1 6 -10 9 -11 9 -1z m370 2 c0
-5 -5 -10 -11 -10 -5 0 -7 5 -4 10 3 6 8 10 11 10 2 0 4 -4 4 -10z m73 -17
c-7 -2 -19 -2 -25 0 -7 3 -2 5 12 5 14 0 19 -2 13 -5z m-520 -118 c-3 -9 -8
-14 -10 -11 -3 3 -2 9 2 15 9 16 15 13 8 -4z m-138 -34 c3 -5 2 -12 -3 -15 -5
-3 -9 1 -9 9 0 17 3 19 12 6z m363 -8 c-10 -2 -26 -2 -35 0 -10 3 -2 5 17 5
19 0 27 -2 18 -5z m-80 -10 c-10 -2 -28 -2 -40 0 -13 2 -5 4 17 4 22 1 32 -1
23 -4z m832 -117 c0 -2 -7 -7 -16 -10 -8 -3 -12 -2 -9 4 6 10 25 14 25 6z
m-652 -93 c-10 -2 -26 -2 -35 0 -10 3 -2 5 17 5 19 0 27 -2 18 -5z m-95 -10
c-7 -2 -21 -2 -30 0 -10 3 -4 5 12 5 17 0 24 -2 18 -5z m615 -70 c-10 -2 -26
-2 -35 0 -10 3 -2 5 17 5 19 0 27 -2 18 -5z m207 -3 c3 -5 1 -10 -4 -10 -6 0
-11 5 -11 10 0 6 2 10 4 10 3 0 8 -4 11 -10z m-302 -7 c-7 -2 -19 -2 -25 0 -7
3 -2 5 12 5 14 0 19 -2 13 -5z m-86 -9 c-3 -3 -12 -4 -19 -1 -8 3 -5 6 6 6 11
1 17 -2 13 -5z m380 -70 c-3 -3 -12 -4 -19 -1 -8 3 -5 6 6 6 11 1 17 -2 13 -5z
m-184 -31 c-7 -2 -19 -2 -25 0 -7 3 -2 5 12 5 14 0 19 -2 13 -5z m-529 -78 c3
-8 1 -15 -4 -15 -6 0 -10 7 -10 15 0 8 2 15 4 15 2 0 6 -7 10 -15z m116 5 c0
-5 -4 -10 -10 -10 -5 0 -10 5 -10 10 0 6 5 10 10 10 6 0 10 -4 10 -10z m-163
-22 c-3 -8 -6 -5 -6 6 -1 11 2 17 5 13 3 -3 4 -12 1 -19z m636 -85 c-7 -2 -19
-2 -25 0 -7 3 -2 5 12 5 14 0 19 -2 13 -5z m54 1 c-3 -3 -12 -4 -19 -1 -8 3
-5 6 6 6 11 1 17 -2 13 -5z m46 -1 c-7 -2 -19 -2 -25 0 -7 3 -2 5 12 5 14 0
19 -2 13 -5z m-156 -9 c-3 -3 -12 -4 -19 -1 -8 3 -5 6 6 6 11 1 17 -2 13 -5z
m-120 -46 c-3 -7 -5 -2 -5 12 0 14 2 19 5 13 2 -7 2 -19 0 -25z m-834 -75 c-7
-2 -19 -2 -25 0 -7 3 -2 5 12 5 14 0 19 -2 13 -5z m130 0 c-7 -2 -19 -2 -25 0
-7 3 -2 5 12 5 14 0 19 -2 13 -5z m742 -3 c-11 -5 -27 -9 -35 -9 -9 0 -8 4 5
9 11 5 27 9 35 9 9 0 8 -4 -5 -9z m-580 -79 c-6 -5 -25 10 -25 20 0 5 6 4 14
-3 8 -7 12 -15 11 -17z m-68 -113 c-3 -7 -5 -2 -5 12 0 14 2 19 5 13 2 -7 2
-19 0 -25z m148 22 c3 -5 2 -10 -4 -10 -5 0 -13 5 -16 10 -3 6 -2 10 4 10 5 0
13 -4 16 -10z m-80 -10 c3 -5 1 -10 -4 -10 -6 0 -11 5 -11 10 0 6 2 10 4 10 3
0 8 -4 11 -10z m202 -12 c-3 -8 -6 -5 -6 6 -1 11 2 17 5 13 3 -3 4 -12 1 -19z
m370 6 c-3 -3 -12 -4 -19 -1 -8 3 -5 6 6 6 11 1 17 -2 13 -5z m-157 -14 c0 -5
-5 -10 -11 -10 -5 0 -7 5 -4 10 3 6 8 10 11 10 2 0 4 -4 4 -10z m93 3 c-7 -2
-19 -2 -25 0 -7 3 -2 5 12 5 14 0 19 -2 13 -5z m-73 -28 c0 -8 -4 -15 -10 -15
-5 0 -7 7 -4 15 4 8 8 15 10 15 2 0 4 -7 4 -15z m-250 1 c0 -2 -9 -6 -20 -9
-11 -3 -20 -1 -20 4 0 5 9 9 20 9 11 0 20 -2 20 -4z m783 -23 c-7 -2 -19 -2
-25 0 -7 3 -2 5 12 5 14 0 19 -2 13 -5z m-636 -75 c-3 -8 -6 -5 -6 6 -1 11 2
17 5 13 3 -3 4 -12 1 -19z m-239 -15 c-21 -2 -57 -2 -80 0 -24 2 -7 4 37 4 44
0 63 -2 43 -4z"/>
<path d="M2330 6280 c0 -5 5 -10 10 -10 6 0 10 5 10 10 0 6 -4 10 -10 10 -5 0
-10 -4 -10 -10z"/>
<path d="M4200 6240 c-13 -8 -12 -10 3 -10 9 0 17 5 17 10 0 12 -1 12 -20 0z"/>
<path d="M5180 6054 c0 -8 5 -12 10 -9 6 3 10 10 10 16 0 5 -4 9 -10 9 -5 0
-10 -7 -10 -16z"/>
<path d="M2972 6017 c-46 -49 -65 -130 -66 -277 -1 -74 3 -165 7 -202 l8 -67
62 -20 c33 -12 64 -21 68 -21 12 0 1 80 -23 177 -17 71 -22 116 -21 233 0 80
2 156 4 169 5 33 -12 36 -39 8z"/>
<path d="M5445 5370 c-3 -5 -1 -10 4 -10 6 0 11 5 11 10 0 6 -2 10 -4 10 -3 0
-8 -4 -11 -10z"/>
<path d="M3398 5318 c-7 -18 28 -33 38 -17 3 5 -1 9 -10 9 -8 0 -16 5 -18 12
-3 8 -6 6 -10 -4z"/>
<path d="M3458 5303 c7 -3 16 -2 19 1 4 3 -2 6 -13 5 -11 0 -14 -3 -6 -6z"/>
<path d="M3556 5281 c-4 -5 -2 -12 3 -15 5 -4 12 -2 15 3 4 5 2 12 -3 15 -5 4
-12 2 -15 -3z"/>
<path d="M3400 5276 c0 -2 9 -6 20 -9 11 -3 20 -1 20 4 0 5 -9 9 -20 9 -11 0
-20 -2 -20 -4z"/>
<path d="M3390 5256 c0 -2 7 -6 15 -10 8 -3 15 -1 15 4 0 6 -7 10 -15 10 -8 0
-15 -2 -15 -4z"/>
<path d="M3675 5240 c-9 -15 -7 -16 38 -24 34 -6 37 -5 26 7 -8 8 -20 12 -27
9 -8 -3 -18 1 -22 8 -6 9 -9 9 -15 0z"/>
<path d="M3780 5191 c-15 -29 -12 -41 10 -41 11 0 20 5 20 10 0 6 -4 10 -9 10
-5 0 -7 9 -4 20 7 25 -3 26 -17 1z"/>
<path d="M3951 5103 c-1 -13 -7 -23 -13 -24 -17 -1 22 -17 42 -18 11 -1 12 2
3 7 -7 4 -16 19 -22 32 -10 24 -10 24 -10 3z"/>
<path d="M4105 4919 c-4 -5 5 -9 19 -9 14 0 26 4 26 8 0 11 -39 12 -45 1z"/>
<path d="M4116 4881 c-3 -5 0 -11 7 -14 8 -3 14 1 14 9 0 16 -13 19 -21 5z"/>
<path d="M4156 4865 c4 -8 8 -15 10 -15 2 0 4 7 4 15 0 8 -4 15 -10 15 -5 0
-7 -7 -4 -15z"/>
<path d="M4244 4765 c-11 -22 -10 -23 13 -12 13 6 20 13 16 16 -4 4 -10 9 -13
13 -3 4 -10 -4 -16 -17z"/>
<path d="M4305 4720 c4 -6 11 -8 16 -5 14 9 11 15 -7 15 -8 0 -12 -5 -9 -10z"/>
<path d="M2260 4625 c0 -12 -4 -25 -9 -30 -13 -14 -65 -185 -58 -192 3 -3 14
3 24 12 16 16 108 63 156 79 10 3 15 10 12 16 -4 6 -10 8 -15 5 -13 -8 -60 16
-54 27 3 5 -4 12 -15 15 -23 6 -24 28 -1 28 23 0 22 23 -2 30 -13 4 -26 13
-30 19 -5 6 -8 3 -8 -9z"/>
<path d="M2595 4552 c-36 -12 -112 -92 -143 -150 -58 -110 -64 -216 -18 -317
86 -185 336 -226 477 -78 20 21 53 75 73 119 31 71 36 91 35 155 0 51 -3 68
-9 54 -5 -11 -9 -14 -9 -7 -1 7 -15 12 -34 12 -43 0 -77 25 -77 57 0 33 31 85
47 79 23 -9 14 1 -26 27 -21 14 -62 32 -91 41 -53 16 -186 20 -225 8z m-102
-419 c7 -27 17 -43 27 -43 11 0 12 -2 3 -8 -16 -10 11 -52 33 -52 8 0 14 -4
14 -10 0 -5 4 -10 10 -10 16 0 90 -34 90 -42 0 -16 -22 -17 -67 -2 -26 9 -55
23 -63 30 -8 8 -25 22 -36 32 -51 41 -73 103 -57 161 6 23 7 23 20 5 8 -10 19
-38 26 -61z"/>
<path d="M4545 4320 c3 -5 8 -10 11 -10 2 0 4 5 4 10 0 6 -5 10 -11 10 -5 0
-7 -4 -4 -10z"/>
<path d="M4490 4310 c0 -5 12 -10 28 -9 24 0 25 1 7 9 -27 12 -35 12 -35 0z"/>
<path d="M4539 4266 c10 -11 8 -17 -6 -25 -16 -9 -16 -10 5 -11 13 0 22 6 22
15 0 8 6 15 13 16 6 0 3 4 -8 9 -30 13 -39 12 -26 -4z"/>
<path d="M4656 4085 c-3 -8 -1 -15 4 -15 6 0 10 7 10 15 0 8 -2 15 -4 15 -2 0
-6 -7 -10 -15z"/>
<path d="M2164 4024 c2 -34 12 -78 21 -98 20 -43 30 -43 15 0 -6 16 -17 58
-25 94 l-15 65 4 -61z"/>
<path d="M4630 4041 c0 -5 -18 -11 -41 -15 -32 -5 -40 -10 -35 -22 5 -12 2
-15 -9 -10 -9 3 -14 2 -10 -3 3 -5 -1 -12 -7 -14 -8 -3 -6 -6 5 -6 15 -1 16
-5 7 -21 -9 -18 -8 -20 15 -20 20 0 25 5 24 23 -1 17 -2 18 -6 4 -2 -9 -9 -15
-14 -12 -14 9 10 47 27 41 7 -3 13 0 11 6 -1 7 8 17 21 23 19 8 32 35 17 35
-3 0 -5 -4 -5 -9z"/>
<path d="M4646 4015 c-16 -12 -17 -15 -4 -15 9 0 18 7 22 15 7 18 6 18 -18 0z"/>
<path d="M4620 3975 c-7 -8 -9 -15 -4 -15 5 0 2 -5 -6 -10 -13 -8 -13 -10 2
-10 9 0 19 8 21 18 4 16 5 16 6 0 0 -10 6 -18 11 -18 9 0 -1 30 -15 48 -1 1
-8 -4 -15 -13z"/>
<path d="M4678 3943 c7 -3 16 -2 19 1 4 3 -2 6 -13 5 -11 0 -14 -3 -6 -6z"/>
<path d="M4560 3914 c0 -14 21 -42 36 -48 14 -5 15 -4 4 9 -7 8 -10 22 -6 30
4 10 -1 15 -14 15 -11 0 -20 -3 -20 -6z"/>
<path d="M4634 3895 c1 -12 9 -21 21 -22 14 -1 15 0 3 3 -9 3 -19 13 -21 22
-3 12 -4 11 -3 -3z"/>
<path d="M4680 3896 c0 -8 4 -17 9 -20 5 -4 7 3 4 14 -6 23 -13 26 -13 6z"/>
<path d="M4721 3884 c0 -11 3 -14 6 -6 3 7 2 16 -1 19 -3 4 -6 -2 -5 -13z"/>
<path d="M4680 3841 c0 -6 5 -13 10 -16 6 -3 10 1 10 9 0 9 -4 16 -10 16 -5 0
-10 -4 -10 -9z"/>
<path d="M5000 3500 c0 -5 5 -10 10 -10 6 0 10 5 10 10 0 6 -4 10 -10 10 -5 0
-10 -4 -10 -10z"/>
<path d="M5035 3290 c3 -5 8 -10 11 -10 2 0 4 5 4 10 0 6 -5 10 -11 10 -5 0
-7 -4 -4 -10z"/>
<path d="M5050 3208 c0 -5 7 -8 15 -8 22 0 18 -38 -5 -45 -20 -6 -29 -35 -11
-35 13 0 45 53 44 73 -1 9 2 15 8 12 5 -4 9 -2 9 4 0 6 -13 9 -30 8 -16 -1
-30 -5 -30 -9z"/>
<path d="M5020 3190 c0 -11 2 -20 4 -20 2 0 6 9 9 20 3 11 1 20 -4 20 -5 0 -9
-9 -9 -20z"/>
<path d="M5040 3175 c0 -9 6 -12 15 -9 8 4 15 10 15 15 0 5 -7 9 -15 9 -8 0
-15 -7 -15 -15z"/>
<path d="M5086 3123 c2 -7 -1 -13 -6 -13 -5 0 -7 -7 -3 -16 3 -9 0 -20 -8 -25
-11 -7 -9 -9 8 -9 12 0 25 5 29 12 4 7 3 8 -4 4 -7 -4 -12 -1 -12 9 0 10 6 15
13 12 8 -3 14 1 14 9 0 8 -6 14 -13 14 -7 0 -14 3 -17 8 -2 4 -2 1 -1 -5z"/>
<path d="M5055 2896 c0 -15 5 -22 12 -19 7 3 11 9 8 13 -3 5 3 13 12 19 16 9
15 10 -7 11 -20 0 -25 -5 -25 -24z"/>
<path d="M5058 2753 c7 -3 16 -2 19 1 4 3 -2 6 -13 5 -11 0 -14 -3 -6 -6z"/>
<path d="M5052 2710 c0 -14 2 -19 5 -12 2 6 2 18 0 25 -3 6 -5 1 -5 -13z"/>
<path d="M5028 2653 c7 -3 16 -2 19 1 4 3 -2 6 -13 5 -11 0 -14 -3 -6 -6z"/>
<path d="M4820 1944 c0 -8 5 -12 10 -9 6 3 10 10 10 16 0 5 -4 9 -10 9 -5 0
-10 -7 -10 -16z"/>
<path d="M5320 1940 c0 -5 5 -10 10 -10 6 0 10 5 10 10 0 6 -4 10 -10 10 -5 0
-10 -4 -10 -10z"/>
</g>
</svg>
